<?xml version="1.0" encoding="utf-8" standalone="no"?>
<!DOCTYPE svg PUBLIC "-//W3C//DTD SVG 1.1//EN"
  "http://www.w3.org/Graphics/SVG/1.1/DTD/svg11.dtd">
<svg xmlns:xlink="http://www.w3.org/1999/xlink" width="531.36pt" height="386.977797pt" viewBox="0 0 531.36 386.977797" xmlns="http://www.w3.org/2000/svg" version="1.1">
 <metadata>
  <rdf:RDF xmlns:dc="http://purl.org/dc/elements/1.1/" xmlns:cc="http://creativecommons.org/ns#" xmlns:rdf="http://www.w3.org/1999/02/22-rdf-syntax-ns#">
   <cc:Work>
    <dc:type rdf:resource="http://purl.org/dc/dcmitype/StillImage"/>
    <dc:date>2025-12-01T21:53:13.985118</dc:date>
    <dc:format>image/svg+xml</dc:format>
    <dc:creator>
     <cc:Agent>
      <dc:title>Matplotlib v3.10.6, https://matplotlib.org/</dc:title>
     </cc:Agent>
    </dc:creator>
   </cc:Work>
  </rdf:RDF>
 </metadata>
 <defs>
  <style type="text/css">*{stroke-linejoin: round; stroke-linecap: butt}</style>
 </defs>
 <g id="figure_1">
  <g id="patch_1">
   <path d="M 0 386.977797 
L 531.36 386.977797 
L 531.36 0 
L 0 0 
L 0 386.977797 
z
" style="fill: none"/>
  </g>
  <g id="axes_1">
   <g id="patch_2">
    <path d="M 54.131746 358.622635 
L 513.542624 358.622635 
L 513.542624 3.6 
L 54.131746 3.6 
L 54.131746 358.622635 
z
" style="fill: none"/>
   </g>
   <g id="matplotlib.axis_1">
    <g id="xtick_1">
     <g id="line2d_1">
      <path d="M 54.131746 358.622635 
L 54.131746 3.6 
" clip-path="url(#p9b41d60590)" style="fill: none; stroke: #b0b0b0; stroke-opacity: 0.3; stroke-width: 0.5; stroke-linecap: square"/>
     </g>
     <g id="line2d_2">
      <defs>
       <path id="m4ef4608c92" d="M 0 0 
L 0 -3 
" style="stroke: #000000; stroke-width: 0.5"/>
      </defs>
      <g>
       <use xlink:href="#m4ef4608c92" x="54.131746" y="358.622635" style="stroke: #000000; stroke-width: 0.5"/>
      </g>
     </g>
     <g id="line2d_3">
      <defs>
       <path id="m8f56929fbe" d="M 0 0 
L 0 3 
" style="stroke: #000000; stroke-width: 0.5"/>
      </defs>
      <g>
       <use xlink:href="#m8f56929fbe" x="54.131746" y="3.6" style="stroke: #000000; stroke-width: 0.5"/>
      </g>
     </g>
     <g id="text_1">
      <!-- $\mathdefault{−1.0}$ -->
      <g transform="translate(30.615873 378.72704) scale(0.24 -0.24)">
       <defs>
        <path id="CMSY10-0" d="M 4218 1472 
C 4326 1472 4442 1472 4442 1600 
C 4442 1728 4326 1728 4218 1728 
L 755 1728 
C 646 1728 531 1728 531 1600 
C 531 1472 646 1472 755 1472 
L 4218 1472 
z
" transform="scale(0.015625)"/>
        <path id="CMR17-31" d="M 1702 4058 
C 1702 4192 1696 4192 1606 4192 
C 1357 3916 979 3827 621 3827 
C 602 3827 570 3827 563 3808 
C 557 3795 557 3782 557 3648 
C 755 3648 1088 3686 1344 3839 
L 1344 461 
C 1344 236 1331 160 781 160 
L 589 160 
L 589 0 
C 896 0 1216 0 1523 0 
C 1830 0 2150 0 2458 0 
L 2458 160 
L 2266 160 
C 1715 160 1702 230 1702 458 
L 1702 4058 
z
" transform="scale(0.015625)"/>
        <path id="CMMI12-3a" d="M 1178 307 
C 1178 492 1024 619 870 619 
C 685 619 557 466 557 313 
C 557 128 710 0 864 0 
C 1050 0 1178 153 1178 307 
z
" transform="scale(0.015625)"/>
        <path id="CMR17-30" d="M 2688 2025 
C 2688 2416 2682 3080 2413 3591 
C 2176 4039 1798 4198 1466 4198 
C 1158 4198 768 4058 525 3597 
C 269 3118 243 2524 243 2025 
C 243 1661 250 1106 448 619 
C 723 -39 1216 -128 1466 -128 
C 1760 -128 2208 -7 2470 600 
C 2662 1042 2688 1559 2688 2025 
z
M 1466 -26 
C 1056 -26 813 325 723 812 
C 653 1188 653 1738 653 2096 
C 653 2588 653 2997 736 3387 
C 858 3929 1216 4096 1466 4096 
C 1728 4096 2067 3923 2189 3400 
C 2272 3036 2278 2607 2278 2096 
C 2278 1680 2278 1169 2202 792 
C 2067 95 1690 -26 1466 -26 
z
" transform="scale(0.015625)"/>
       </defs>
       <use xlink:href="#CMSY10-0" transform="scale(0.996264)"/>
       <use xlink:href="#CMR17-31" transform="translate(77.487468 0) scale(0.996264)"/>
       <use xlink:href="#CMMI12-3a" transform="translate(123.177945 0) scale(0.996264)"/>
       <use xlink:href="#CMR17-30" transform="translate(150.275122 0) scale(0.996264)"/>
      </g>
     </g>
    </g>
    <g id="xtick_2">
     <g id="line2d_4">
      <path d="M 168.984465 358.622635 
L 168.984465 3.6 
" clip-path="url(#p9b41d60590)" style="fill: none; stroke: #b0b0b0; stroke-opacity: 0.3; stroke-width: 0.5; stroke-linecap: square"/>
     </g>
     <g id="line2d_5">
      <g>
       <use xlink:href="#m4ef4608c92" x="168.984465" y="358.622635" style="stroke: #000000; stroke-width: 0.5"/>
      </g>
     </g>
     <g id="line2d_6">
      <g>
       <use xlink:href="#m8f56929fbe" x="168.984465" y="3.6" style="stroke: #000000; stroke-width: 0.5"/>
      </g>
     </g>
     <g id="text_2">
      <!-- $\mathdefault{−0.5}$ -->
      <g transform="translate(145.468592 378.72704) scale(0.24 -0.24)">
       <defs>
        <path id="CMR17-35" d="M 730 3692 
C 794 3666 1056 3584 1325 3584 
C 1920 3584 2246 3911 2432 4100 
C 2432 4157 2432 4192 2394 4192 
C 2387 4192 2374 4192 2323 4163 
C 2099 4058 1837 3973 1517 3973 
C 1325 3973 1037 3999 723 4139 
C 653 4171 640 4171 634 4171 
C 602 4171 595 4164 595 4037 
L 595 2203 
C 595 2089 595 2057 659 2057 
C 691 2057 704 2070 736 2114 
C 941 2401 1222 2522 1542 2522 
C 1766 2522 2246 2382 2246 1289 
C 2246 1085 2246 715 2054 421 
C 1894 159 1645 25 1370 25 
C 947 25 518 320 403 814 
C 429 807 480 795 506 795 
C 589 795 749 840 749 1038 
C 749 1210 627 1280 506 1280 
C 358 1280 262 1190 262 1011 
C 262 454 704 -128 1382 -128 
C 2042 -128 2669 440 2669 1264 
C 2669 2030 2170 2624 1549 2624 
C 1222 2624 947 2503 730 2274 
L 730 3692 
z
" transform="scale(0.015625)"/>
       </defs>
       <use xlink:href="#CMSY10-0" transform="scale(0.996264)"/>
       <use xlink:href="#CMR17-30" transform="translate(77.487468 0) scale(0.996264)"/>
       <use xlink:href="#CMMI12-3a" transform="translate(123.177945 0) scale(0.996264)"/>
       <use xlink:href="#CMR17-35" transform="translate(150.275122 0) scale(0.996264)"/>
      </g>
     </g>
    </g>
    <g id="xtick_3">
     <g id="line2d_7">
      <path d="M 283.837185 358.622635 
L 283.837185 3.6 
" clip-path="url(#p9b41d60590)" style="fill: none; stroke: #b0b0b0; stroke-opacity: 0.3; stroke-width: 0.5; stroke-linecap: square"/>
     </g>
     <g id="line2d_8">
      <g>
       <use xlink:href="#m4ef4608c92" x="283.837185" y="358.622635" style="stroke: #000000; stroke-width: 0.5"/>
      </g>
     </g>
     <g id="line2d_9">
      <g>
       <use xlink:href="#m8f56929fbe" x="283.837185" y="3.6" style="stroke: #000000; stroke-width: 0.5"/>
      </g>
     </g>
     <g id="text_3">
      <!-- $\mathdefault{0.0}$ -->
      <g transform="translate(269.619809 378.72704) scale(0.24 -0.24)">
       <use xlink:href="#CMR17-30" transform="scale(0.996264)"/>
       <use xlink:href="#CMMI12-3a" transform="translate(45.690477 0) scale(0.996264)"/>
       <use xlink:href="#CMR17-30" transform="translate(72.787654 0) scale(0.996264)"/>
      </g>
     </g>
    </g>
    <g id="xtick_4">
     <g id="line2d_10">
      <path d="M 398.689905 358.622635 
L 398.689905 3.6 
" clip-path="url(#p9b41d60590)" style="fill: none; stroke: #b0b0b0; stroke-opacity: 0.3; stroke-width: 0.5; stroke-linecap: square"/>
     </g>
     <g id="line2d_11">
      <g>
       <use xlink:href="#m4ef4608c92" x="398.689905" y="358.622635" style="stroke: #000000; stroke-width: 0.5"/>
      </g>
     </g>
     <g id="line2d_12">
      <g>
       <use xlink:href="#m8f56929fbe" x="398.689905" y="3.6" style="stroke: #000000; stroke-width: 0.5"/>
      </g>
     </g>
     <g id="text_4">
      <!-- $\mathdefault{0.5}$ -->
      <g transform="translate(384.472529 378.72704) scale(0.24 -0.24)">
       <use xlink:href="#CMR17-30" transform="scale(0.996264)"/>
       <use xlink:href="#CMMI12-3a" transform="translate(45.690477 0) scale(0.996264)"/>
       <use xlink:href="#CMR17-35" transform="translate(72.787654 0) scale(0.996264)"/>
      </g>
     </g>
    </g>
    <g id="xtick_5">
     <g id="line2d_13">
      <path d="M 513.542624 358.622635 
L 513.542624 3.6 
" clip-path="url(#p9b41d60590)" style="fill: none; stroke: #b0b0b0; stroke-opacity: 0.3; stroke-width: 0.5; stroke-linecap: square"/>
     </g>
     <g id="line2d_14">
      <g>
       <use xlink:href="#m4ef4608c92" x="513.542624" y="358.622635" style="stroke: #000000; stroke-width: 0.5"/>
      </g>
     </g>
     <g id="line2d_15">
      <g>
       <use xlink:href="#m8f56929fbe" x="513.542624" y="3.6" style="stroke: #000000; stroke-width: 0.5"/>
      </g>
     </g>
     <g id="text_5">
      <!-- $\mathdefault{1.0}$ -->
      <g transform="translate(499.325248 378.72704) scale(0.24 -0.24)">
       <use xlink:href="#CMR17-31" transform="scale(0.996264)"/>
       <use xlink:href="#CMMI12-3a" transform="translate(45.690477 0) scale(0.996264)"/>
       <use xlink:href="#CMR17-30" transform="translate(72.787654 0) scale(0.996264)"/>
      </g>
     </g>
    </g>
    <g id="xtick_6">
     <g id="line2d_16">
      <defs>
       <path id="m7074acd9c5" d="M 0 0 
L 0 -1.5 
" style="stroke: #000000; stroke-width: 0.5"/>
      </defs>
      <g>
       <use xlink:href="#m7074acd9c5" x="77.10229" y="358.622635" style="stroke: #000000; stroke-width: 0.5"/>
      </g>
     </g>
     <g id="line2d_17">
      <defs>
       <path id="m90eb58083a" d="M 0 0 
L 0 1.5 
" style="stroke: #000000; stroke-width: 0.5"/>
      </defs>
      <g>
       <use xlink:href="#m90eb58083a" x="77.10229" y="3.6" style="stroke: #000000; stroke-width: 0.5"/>
      </g>
     </g>
    </g>
    <g id="xtick_7">
     <g id="line2d_18">
      <g>
       <use xlink:href="#m7074acd9c5" x="100.072833" y="358.622635" style="stroke: #000000; stroke-width: 0.5"/>
      </g>
     </g>
     <g id="line2d_19">
      <g>
       <use xlink:href="#m90eb58083a" x="100.072833" y="3.6" style="stroke: #000000; stroke-width: 0.5"/>
      </g>
     </g>
    </g>
    <g id="xtick_8">
     <g id="line2d_20">
      <g>
       <use xlink:href="#m7074acd9c5" x="123.043377" y="358.622635" style="stroke: #000000; stroke-width: 0.5"/>
      </g>
     </g>
     <g id="line2d_21">
      <g>
       <use xlink:href="#m90eb58083a" x="123.043377" y="3.6" style="stroke: #000000; stroke-width: 0.5"/>
      </g>
     </g>
    </g>
    <g id="xtick_9">
     <g id="line2d_22">
      <g>
       <use xlink:href="#m7074acd9c5" x="146.013921" y="358.622635" style="stroke: #000000; stroke-width: 0.5"/>
      </g>
     </g>
     <g id="line2d_23">
      <g>
       <use xlink:href="#m90eb58083a" x="146.013921" y="3.6" style="stroke: #000000; stroke-width: 0.5"/>
      </g>
     </g>
    </g>
    <g id="xtick_10">
     <g id="line2d_24">
      <g>
       <use xlink:href="#m7074acd9c5" x="191.955009" y="358.622635" style="stroke: #000000; stroke-width: 0.5"/>
      </g>
     </g>
     <g id="line2d_25">
      <g>
       <use xlink:href="#m90eb58083a" x="191.955009" y="3.6" style="stroke: #000000; stroke-width: 0.5"/>
      </g>
     </g>
    </g>
    <g id="xtick_11">
     <g id="line2d_26">
      <g>
       <use xlink:href="#m7074acd9c5" x="214.925553" y="358.622635" style="stroke: #000000; stroke-width: 0.5"/>
      </g>
     </g>
     <g id="line2d_27">
      <g>
       <use xlink:href="#m90eb58083a" x="214.925553" y="3.6" style="stroke: #000000; stroke-width: 0.5"/>
      </g>
     </g>
    </g>
    <g id="xtick_12">
     <g id="line2d_28">
      <g>
       <use xlink:href="#m7074acd9c5" x="237.896097" y="358.622635" style="stroke: #000000; stroke-width: 0.5"/>
      </g>
     </g>
     <g id="line2d_29">
      <g>
       <use xlink:href="#m90eb58083a" x="237.896097" y="3.6" style="stroke: #000000; stroke-width: 0.5"/>
      </g>
     </g>
    </g>
    <g id="xtick_13">
     <g id="line2d_30">
      <g>
       <use xlink:href="#m7074acd9c5" x="260.866641" y="358.622635" style="stroke: #000000; stroke-width: 0.5"/>
      </g>
     </g>
     <g id="line2d_31">
      <g>
       <use xlink:href="#m90eb58083a" x="260.866641" y="3.6" style="stroke: #000000; stroke-width: 0.5"/>
      </g>
     </g>
    </g>
    <g id="xtick_14">
     <g id="line2d_32">
      <g>
       <use xlink:href="#m7074acd9c5" x="306.807729" y="358.622635" style="stroke: #000000; stroke-width: 0.5"/>
      </g>
     </g>
     <g id="line2d_33">
      <g>
       <use xlink:href="#m90eb58083a" x="306.807729" y="3.6" style="stroke: #000000; stroke-width: 0.5"/>
      </g>
     </g>
    </g>
    <g id="xtick_15">
     <g id="line2d_34">
      <g>
       <use xlink:href="#m7074acd9c5" x="329.778273" y="358.622635" style="stroke: #000000; stroke-width: 0.5"/>
      </g>
     </g>
     <g id="line2d_35">
      <g>
       <use xlink:href="#m90eb58083a" x="329.778273" y="3.6" style="stroke: #000000; stroke-width: 0.5"/>
      </g>
     </g>
    </g>
    <g id="xtick_16">
     <g id="line2d_36">
      <g>
       <use xlink:href="#m7074acd9c5" x="352.748817" y="358.622635" style="stroke: #000000; stroke-width: 0.5"/>
      </g>
     </g>
     <g id="line2d_37">
      <g>
       <use xlink:href="#m90eb58083a" x="352.748817" y="3.6" style="stroke: #000000; stroke-width: 0.5"/>
      </g>
     </g>
    </g>
    <g id="xtick_17">
     <g id="line2d_38">
      <g>
       <use xlink:href="#m7074acd9c5" x="375.719361" y="358.622635" style="stroke: #000000; stroke-width: 0.5"/>
      </g>
     </g>
     <g id="line2d_39">
      <g>
       <use xlink:href="#m90eb58083a" x="375.719361" y="3.6" style="stroke: #000000; stroke-width: 0.5"/>
      </g>
     </g>
    </g>
    <g id="xtick_18">
     <g id="line2d_40">
      <g>
       <use xlink:href="#m7074acd9c5" x="421.660449" y="358.622635" style="stroke: #000000; stroke-width: 0.5"/>
      </g>
     </g>
     <g id="line2d_41">
      <g>
       <use xlink:href="#m90eb58083a" x="421.660449" y="3.6" style="stroke: #000000; stroke-width: 0.5"/>
      </g>
     </g>
    </g>
    <g id="xtick_19">
     <g id="line2d_42">
      <g>
       <use xlink:href="#m7074acd9c5" x="444.630992" y="358.622635" style="stroke: #000000; stroke-width: 0.5"/>
      </g>
     </g>
     <g id="line2d_43">
      <g>
       <use xlink:href="#m90eb58083a" x="444.630992" y="3.6" style="stroke: #000000; stroke-width: 0.5"/>
      </g>
     </g>
    </g>
    <g id="xtick_20">
     <g id="line2d_44">
      <g>
       <use xlink:href="#m7074acd9c5" x="467.601536" y="358.622635" style="stroke: #000000; stroke-width: 0.5"/>
      </g>
     </g>
     <g id="line2d_45">
      <g>
       <use xlink:href="#m90eb58083a" x="467.601536" y="3.6" style="stroke: #000000; stroke-width: 0.5"/>
      </g>
     </g>
    </g>
    <g id="xtick_21">
     <g id="line2d_46">
      <g>
       <use xlink:href="#m7074acd9c5" x="490.57208" y="358.622635" style="stroke: #000000; stroke-width: 0.5"/>
      </g>
     </g>
     <g id="line2d_47">
      <g>
       <use xlink:href="#m90eb58083a" x="490.57208" y="3.6" style="stroke: #000000; stroke-width: 0.5"/>
      </g>
     </g>
    </g>
   </g>
   <g id="matplotlib.axis_2">
    <g id="ytick_1">
     <g id="line2d_48">
      <path d="M 54.131746 350.169715 
L 513.542624 350.169715 
" clip-path="url(#p9b41d60590)" style="fill: none; stroke: #b0b0b0; stroke-opacity: 0.3; stroke-width: 0.5; stroke-linecap: square"/>
     </g>
     <g id="line2d_49">
      <defs>
       <path id="mb9772e6741" d="M 0 0 
L 3 0 
" style="stroke: #000000; stroke-width: 0.5"/>
      </defs>
      <g>
       <use xlink:href="#mb9772e6741" x="54.131746" y="350.169715" style="stroke: #000000; stroke-width: 0.5"/>
      </g>
     </g>
     <g id="line2d_50">
      <defs>
       <path id="mbadf9610c0" d="M 0 0 
L -3 0 
" style="stroke: #000000; stroke-width: 0.5"/>
      </defs>
      <g>
       <use xlink:href="#mbadf9610c0" x="513.542624" y="350.169715" style="stroke: #000000; stroke-width: 0.5"/>
      </g>
     </g>
     <g id="text_6">
      <!-- $\mathdefault{−1.0}$ -->
      <g transform="translate(3.6 358.471918) scale(0.24 -0.24)">
       <use xlink:href="#CMSY10-0" transform="scale(0.996264)"/>
       <use xlink:href="#CMR17-31" transform="translate(77.487468 0) scale(0.996264)"/>
       <use xlink:href="#CMMI12-3a" transform="translate(123.177945 0) scale(0.996264)"/>
       <use xlink:href="#CMR17-30" transform="translate(150.275122 0) scale(0.996264)"/>
      </g>
     </g>
    </g>
    <g id="ytick_2">
     <g id="line2d_51">
      <path d="M 54.131746 265.640516 
L 513.542624 265.640516 
" clip-path="url(#p9b41d60590)" style="fill: none; stroke: #b0b0b0; stroke-opacity: 0.3; stroke-width: 0.5; stroke-linecap: square"/>
     </g>
     <g id="line2d_52">
      <g>
       <use xlink:href="#mb9772e6741" x="54.131746" y="265.640516" style="stroke: #000000; stroke-width: 0.5"/>
      </g>
     </g>
     <g id="line2d_53">
      <g>
       <use xlink:href="#mbadf9610c0" x="513.542624" y="265.640516" style="stroke: #000000; stroke-width: 0.5"/>
      </g>
     </g>
     <g id="text_7">
      <!-- $\mathdefault{−0.5}$ -->
      <g transform="translate(3.6 273.942719) scale(0.24 -0.24)">
       <use xlink:href="#CMSY10-0" transform="scale(0.996264)"/>
       <use xlink:href="#CMR17-30" transform="translate(77.487468 0) scale(0.996264)"/>
       <use xlink:href="#CMMI12-3a" transform="translate(123.177945 0) scale(0.996264)"/>
       <use xlink:href="#CMR17-35" transform="translate(150.275122 0) scale(0.996264)"/>
      </g>
     </g>
    </g>
    <g id="ytick_3">
     <g id="line2d_54">
      <path d="M 54.131746 181.111317 
L 513.542624 181.111317 
" clip-path="url(#p9b41d60590)" style="fill: none; stroke: #b0b0b0; stroke-opacity: 0.3; stroke-width: 0.5; stroke-linecap: square"/>
     </g>
     <g id="line2d_55">
      <g>
       <use xlink:href="#mb9772e6741" x="54.131746" y="181.111317" style="stroke: #000000; stroke-width: 0.5"/>
      </g>
     </g>
     <g id="line2d_56">
      <g>
       <use xlink:href="#mbadf9610c0" x="513.542624" y="181.111317" style="stroke: #000000; stroke-width: 0.5"/>
      </g>
     </g>
     <g id="text_8">
      <!-- $\mathdefault{0.0}$ -->
      <g transform="translate(22.196994 189.41352) scale(0.24 -0.24)">
       <use xlink:href="#CMR17-30" transform="scale(0.996264)"/>
       <use xlink:href="#CMMI12-3a" transform="translate(45.690477 0) scale(0.996264)"/>
       <use xlink:href="#CMR17-30" transform="translate(72.787654 0) scale(0.996264)"/>
      </g>
     </g>
    </g>
    <g id="ytick_4">
     <g id="line2d_57">
      <path d="M 54.131746 96.582119 
L 513.542624 96.582119 
" clip-path="url(#p9b41d60590)" style="fill: none; stroke: #b0b0b0; stroke-opacity: 0.3; stroke-width: 0.5; stroke-linecap: square"/>
     </g>
     <g id="line2d_58">
      <g>
       <use xlink:href="#mb9772e6741" x="54.131746" y="96.582119" style="stroke: #000000; stroke-width: 0.5"/>
      </g>
     </g>
     <g id="line2d_59">
      <g>
       <use xlink:href="#mbadf9610c0" x="513.542624" y="96.582119" style="stroke: #000000; stroke-width: 0.5"/>
      </g>
     </g>
     <g id="text_9">
      <!-- $\mathdefault{0.5}$ -->
      <g transform="translate(22.196994 104.884321) scale(0.24 -0.24)">
       <use xlink:href="#CMR17-30" transform="scale(0.996264)"/>
       <use xlink:href="#CMMI12-3a" transform="translate(45.690477 0) scale(0.996264)"/>
       <use xlink:href="#CMR17-35" transform="translate(72.787654 0) scale(0.996264)"/>
      </g>
     </g>
    </g>
    <g id="ytick_5">
     <g id="line2d_60">
      <path d="M 54.131746 12.05292 
L 513.542624 12.05292 
" clip-path="url(#p9b41d60590)" style="fill: none; stroke: #b0b0b0; stroke-opacity: 0.3; stroke-width: 0.5; stroke-linecap: square"/>
     </g>
     <g id="line2d_61">
      <g>
       <use xlink:href="#mb9772e6741" x="54.131746" y="12.05292" style="stroke: #000000; stroke-width: 0.5"/>
      </g>
     </g>
     <g id="line2d_62">
      <g>
       <use xlink:href="#mbadf9610c0" x="513.542624" y="12.05292" style="stroke: #000000; stroke-width: 0.5"/>
      </g>
     </g>
     <g id="text_10">
      <!-- $\mathdefault{1.0}$ -->
      <g transform="translate(22.196994 20.355122) scale(0.24 -0.24)">
       <use xlink:href="#CMR17-31" transform="scale(0.996264)"/>
       <use xlink:href="#CMMI12-3a" transform="translate(45.690477 0) scale(0.996264)"/>
       <use xlink:href="#CMR17-30" transform="translate(72.787654 0) scale(0.996264)"/>
      </g>
     </g>
    </g>
    <g id="ytick_6">
     <g id="line2d_63">
      <defs>
       <path id="md16a97de12" d="M 0 0 
L 1.5 0 
" style="stroke: #000000; stroke-width: 0.5"/>
      </defs>
      <g>
       <use xlink:href="#md16a97de12" x="54.131746" y="333.263875" style="stroke: #000000; stroke-width: 0.5"/>
      </g>
     </g>
     <g id="line2d_64">
      <defs>
       <path id="m11bac71fd3" d="M 0 0 
L -1.5 0 
" style="stroke: #000000; stroke-width: 0.5"/>
      </defs>
      <g>
       <use xlink:href="#m11bac71fd3" x="513.542624" y="333.263875" style="stroke: #000000; stroke-width: 0.5"/>
      </g>
     </g>
    </g>
    <g id="ytick_7">
     <g id="line2d_65">
      <g>
       <use xlink:href="#md16a97de12" x="54.131746" y="316.358035" style="stroke: #000000; stroke-width: 0.5"/>
      </g>
     </g>
     <g id="line2d_66">
      <g>
       <use xlink:href="#m11bac71fd3" x="513.542624" y="316.358035" style="stroke: #000000; stroke-width: 0.5"/>
      </g>
     </g>
    </g>
    <g id="ytick_8">
     <g id="line2d_67">
      <g>
       <use xlink:href="#md16a97de12" x="54.131746" y="299.452196" style="stroke: #000000; stroke-width: 0.5"/>
      </g>
     </g>
     <g id="line2d_68">
      <g>
       <use xlink:href="#m11bac71fd3" x="513.542624" y="299.452196" style="stroke: #000000; stroke-width: 0.5"/>
      </g>
     </g>
    </g>
    <g id="ytick_9">
     <g id="line2d_69">
      <g>
       <use xlink:href="#md16a97de12" x="54.131746" y="282.546356" style="stroke: #000000; stroke-width: 0.5"/>
      </g>
     </g>
     <g id="line2d_70">
      <g>
       <use xlink:href="#m11bac71fd3" x="513.542624" y="282.546356" style="stroke: #000000; stroke-width: 0.5"/>
      </g>
     </g>
    </g>
    <g id="ytick_10">
     <g id="line2d_71">
      <g>
       <use xlink:href="#md16a97de12" x="54.131746" y="248.734676" style="stroke: #000000; stroke-width: 0.5"/>
      </g>
     </g>
     <g id="line2d_72">
      <g>
       <use xlink:href="#m11bac71fd3" x="513.542624" y="248.734676" style="stroke: #000000; stroke-width: 0.5"/>
      </g>
     </g>
    </g>
    <g id="ytick_11">
     <g id="line2d_73">
      <g>
       <use xlink:href="#md16a97de12" x="54.131746" y="231.828837" style="stroke: #000000; stroke-width: 0.5"/>
      </g>
     </g>
     <g id="line2d_74">
      <g>
       <use xlink:href="#m11bac71fd3" x="513.542624" y="231.828837" style="stroke: #000000; stroke-width: 0.5"/>
      </g>
     </g>
    </g>
    <g id="ytick_12">
     <g id="line2d_75">
      <g>
       <use xlink:href="#md16a97de12" x="54.131746" y="214.922997" style="stroke: #000000; stroke-width: 0.5"/>
      </g>
     </g>
     <g id="line2d_76">
      <g>
       <use xlink:href="#m11bac71fd3" x="513.542624" y="214.922997" style="stroke: #000000; stroke-width: 0.5"/>
      </g>
     </g>
    </g>
    <g id="ytick_13">
     <g id="line2d_77">
      <g>
       <use xlink:href="#md16a97de12" x="54.131746" y="198.017157" style="stroke: #000000; stroke-width: 0.5"/>
      </g>
     </g>
     <g id="line2d_78">
      <g>
       <use xlink:href="#m11bac71fd3" x="513.542624" y="198.017157" style="stroke: #000000; stroke-width: 0.5"/>
      </g>
     </g>
    </g>
    <g id="ytick_14">
     <g id="line2d_79">
      <g>
       <use xlink:href="#md16a97de12" x="54.131746" y="164.205478" style="stroke: #000000; stroke-width: 0.5"/>
      </g>
     </g>
     <g id="line2d_80">
      <g>
       <use xlink:href="#m11bac71fd3" x="513.542624" y="164.205478" style="stroke: #000000; stroke-width: 0.5"/>
      </g>
     </g>
    </g>
    <g id="ytick_15">
     <g id="line2d_81">
      <g>
       <use xlink:href="#md16a97de12" x="54.131746" y="147.299638" style="stroke: #000000; stroke-width: 0.5"/>
      </g>
     </g>
     <g id="line2d_82">
      <g>
       <use xlink:href="#m11bac71fd3" x="513.542624" y="147.299638" style="stroke: #000000; stroke-width: 0.5"/>
      </g>
     </g>
    </g>
    <g id="ytick_16">
     <g id="line2d_83">
      <g>
       <use xlink:href="#md16a97de12" x="54.131746" y="130.393798" style="stroke: #000000; stroke-width: 0.5"/>
      </g>
     </g>
     <g id="line2d_84">
      <g>
       <use xlink:href="#m11bac71fd3" x="513.542624" y="130.393798" style="stroke: #000000; stroke-width: 0.5"/>
      </g>
     </g>
    </g>
    <g id="ytick_17">
     <g id="line2d_85">
      <g>
       <use xlink:href="#md16a97de12" x="54.131746" y="113.487958" style="stroke: #000000; stroke-width: 0.5"/>
      </g>
     </g>
     <g id="line2d_86">
      <g>
       <use xlink:href="#m11bac71fd3" x="513.542624" y="113.487958" style="stroke: #000000; stroke-width: 0.5"/>
      </g>
     </g>
    </g>
    <g id="ytick_18">
     <g id="line2d_87">
      <g>
       <use xlink:href="#md16a97de12" x="54.131746" y="79.676279" style="stroke: #000000; stroke-width: 0.5"/>
      </g>
     </g>
     <g id="line2d_88">
      <g>
       <use xlink:href="#m11bac71fd3" x="513.542624" y="79.676279" style="stroke: #000000; stroke-width: 0.5"/>
      </g>
     </g>
    </g>
    <g id="ytick_19">
     <g id="line2d_89">
      <g>
       <use xlink:href="#md16a97de12" x="54.131746" y="62.770439" style="stroke: #000000; stroke-width: 0.5"/>
      </g>
     </g>
     <g id="line2d_90">
      <g>
       <use xlink:href="#m11bac71fd3" x="513.542624" y="62.770439" style="stroke: #000000; stroke-width: 0.5"/>
      </g>
     </g>
    </g>
    <g id="ytick_20">
     <g id="line2d_91">
      <g>
       <use xlink:href="#md16a97de12" x="54.131746" y="45.864599" style="stroke: #000000; stroke-width: 0.5"/>
      </g>
     </g>
     <g id="line2d_92">
      <g>
       <use xlink:href="#m11bac71fd3" x="513.542624" y="45.864599" style="stroke: #000000; stroke-width: 0.5"/>
      </g>
     </g>
    </g>
    <g id="ytick_21">
     <g id="line2d_93">
      <g>
       <use xlink:href="#md16a97de12" x="54.131746" y="28.95876" style="stroke: #000000; stroke-width: 0.5"/>
      </g>
     </g>
     <g id="line2d_94">
      <g>
       <use xlink:href="#m11bac71fd3" x="513.542624" y="28.95876" style="stroke: #000000; stroke-width: 0.5"/>
      </g>
     </g>
    </g>
   </g>
   <g id="line2d_95">
    <path d="M 54.131746 322.963406 
L 55.971229 329.866015 
L 57.810712 335.815198 
L 59.190324 339.628223 
L 60.569936 342.869617 
L 61.949548 345.527689 
L 63.329161 347.592855 
L 64.248902 348.636474 
L 65.168644 349.411551 
L 66.088385 349.916845 
L 67.008127 350.151545 
L 67.927868 350.115275 
L 68.84761 349.808093 
L 69.767351 349.230492 
L 70.687093 348.383398 
L 71.606834 347.268168 
L 72.526576 345.88659 
L 73.906188 343.319781 
L 75.2858 340.168028 
L 76.665412 336.442696 
L 78.045025 332.15722 
L 79.884508 325.59891 
L 81.723991 318.114523 
L 83.563474 309.752028 
L 85.862827 298.146233 
L 88.162181 285.368724 
L 90.921406 268.669918 
L 94.140501 247.611081 
L 97.819467 221.972576 
L 103.797787 178.382192 
L 110.235977 131.729002 
L 113.914943 106.576036 
L 117.134038 86.111324 
L 119.893263 70.038417 
L 122.192616 57.857947 
L 124.49197 46.911449 
L 126.331453 39.116799 
L 128.170936 32.232249 
L 130.010419 26.301923 
L 131.390031 22.50349 
L 132.769644 19.277017 
L 134.149256 16.63414 
L 135.528868 14.584388 
L 136.44861 13.55114 
L 137.368351 12.786489 
L 138.288093 12.291661 
L 139.207834 12.06745 
L 140.127576 12.114215 
L 141.047317 12.43188 
L 141.967059 13.019937 
L 142.8868 13.877442 
L 143.806542 15.003022 
L 144.726283 16.394872 
L 146.105895 18.976907 
L 147.485508 22.14362 
L 148.86512 25.883589 
L 150.244732 30.18333 
L 152.084215 36.759989 
L 153.923698 44.261852 
L 155.763181 52.640838 
L 158.062535 64.265699 
L 160.361889 77.06038 
L 163.121113 93.77705 
L 166.340208 114.852627 
L 170.019174 140.504459 
L 175.997494 184.102529 
L 182.435685 230.744265 
L 186.114651 255.881781 
L 189.333746 276.328019 
L 192.09297 292.381694 
L 194.392324 304.54395 
L 196.691678 315.47044 
L 198.531161 323.247924 
L 200.370644 330.114399 
L 202.210127 336.025854 
L 203.589739 339.809685 
L 204.969351 343.021229 
L 206.348964 345.648905 
L 207.728576 347.683238 
L 208.648317 348.706114 
L 209.568059 349.460336 
L 210.4878 349.944696 
L 211.407542 350.158418 
L 212.327283 350.101159 
L 213.247025 349.773011 
L 214.166766 349.1745 
L 215.086508 348.306585 
L 216.006249 347.170658 
L 216.925991 345.768539 
L 218.305603 343.171284 
L 219.685215 339.98962 
L 221.064828 336.235021 
L 222.44444 331.921026 
L 224.283923 325.326034 
L 226.123406 317.806713 
L 227.962889 309.411258 
L 230.262243 297.767357 
L 232.561596 284.955535 
L 235.320821 268.221042 
L 238.539916 247.128776 
L 242.218882 221.463677 
L 248.197202 177.858027 
L 254.635392 131.227858 
L 258.314358 106.105851 
L 261.533454 85.678135 
L 264.292678 69.643732 
L 266.592032 57.499719 
L 268.891386 46.593264 
L 270.730869 38.832964 
L 272.570352 31.984581 
L 274.409835 26.092011 
L 275.789447 22.322791 
L 277.169059 19.126184 
L 278.548671 16.513715 
L 279.928284 14.494806 
L 280.848025 13.482306 
L 281.767767 12.738514 
L 282.687508 12.264622 
L 283.60725 12.06139 
L 284.526991 12.129143 
L 285.446733 12.467773 
L 286.366474 13.076737 
L 287.286216 13.955059 
L 288.205957 15.10133 
L 289.125699 16.513715 
L 290.505311 19.126184 
L 291.884923 22.322791 
L 293.264535 26.092011 
L 294.644148 30.420249 
L 296.483631 37.033559 
L 298.323114 44.57032 
L 300.162597 52.982225 
L 302.46195 64.645137 
L 304.761304 77.474069 
L 307.520529 94.226346 
L 310.739624 115.335249 
L 314.41859 141.013553 
L 320.396909 184.626678 
L 326.8351 231.24517 
L 330.514066 256.351607 
L 333.733161 276.76075 
L 336.492386 292.775844 
L 338.791739 304.901585 
L 341.091093 315.787978 
L 342.930576 323.531076 
L 344.770059 330.36135 
L 346.609542 336.235021 
L 347.989154 339.98962 
L 349.368767 343.171284 
L 350.748379 345.768539 
L 352.127991 347.77202 
L 353.047733 348.774141 
L 353.967474 349.507501 
L 354.887216 349.970924 
L 355.806957 350.163666 
L 356.726699 350.085419 
L 357.64644 349.736307 
L 358.566182 349.116892 
L 359.485923 348.228165 
L 360.405665 347.071552 
L 361.325406 345.648905 
L 362.705018 343.021229 
L 364.084631 339.809685 
L 365.464243 336.025854 
L 366.843855 331.683383 
L 368.683338 325.051771 
L 370.522821 317.497589 
L 372.362304 309.069254 
L 374.661658 297.387359 
L 376.961012 284.541348 
L 379.720236 267.771328 
L 382.939331 246.645837 
L 386.618297 220.95439 
L 392.596617 177.333894 
L 399.034808 130.727193 
L 402.713774 105.636386 
L 405.932869 85.245864 
L 408.692093 69.250118 
L 410.991447 57.142679 
L 413.290801 46.276373 
L 415.130284 38.550496 
L 416.969767 31.738348 
L 418.80925 25.883589 
L 420.188862 22.14362 
L 421.568474 18.976907 
L 422.948087 16.394872 
L 424.327699 14.406826 
L 425.24744 13.415084 
L 426.167182 12.692158 
L 427.086923 12.239206 
L 428.006665 12.056955 
L 428.926406 12.145696 
L 429.846148 12.505288 
L 430.765889 13.135153 
L 431.685631 14.034283 
L 432.605372 15.201235 
L 433.984985 17.449623 
L 435.364597 20.288196 
L 436.744209 23.706718 
L 438.123821 27.69286 
L 439.963304 33.865549 
L 441.802787 40.981994 
L 443.64227 48.996583 
L 445.941624 60.199055 
L 448.240978 72.612061 
L 451.000202 88.929811 
L 453.759427 106.576036 
L 457.438393 131.729002 
L 462.0371 164.868955 
L 471.694386 234.964411 
L 475.373352 259.831527 
L 478.132577 277.192561 
L 480.891801 293.168921 
L 483.191155 305.258029 
L 485.490509 316.104222 
L 487.329992 323.812859 
L 489.169475 330.606865 
L 491.008958 336.442696 
L 492.38857 340.168028 
L 493.768182 343.319781 
L 495.147794 345.88659 
L 496.527407 347.859198 
L 497.447148 348.840557 
L 498.36689 349.553048 
L 499.286631 349.995528 
L 500.206373 350.167288 
L 501.126114 350.068053 
L 502.045856 349.697982 
L 502.965597 349.057668 
L 503.885339 348.148138 
L 504.80508 346.970849 
L 506.184692 344.707114 
L 507.564304 341.853431 
L 508.943917 338.420093 
L 510.323529 334.419478 
L 512.163012 328.228121 
L 513.542624 322.963406 
L 513.542624 322.963406 
" clip-path="url(#p9b41d60590)" style="fill: none; stroke: #0c5da5; stroke-width: 3; stroke-linecap: square"/>
   </g>
   <g id="line2d_96">
    <path d="M 54.131746 322.963406 
L 55.971229 329.866015 
L 57.810712 335.815198 
L 59.190324 339.628223 
L 60.569936 342.869617 
L 61.949548 345.527689 
L 63.329161 347.592855 
L 64.248902 348.636474 
L 65.168644 349.411551 
L 66.088385 349.916845 
L 67.008127 350.151545 
L 67.927868 350.115275 
L 68.84761 349.808093 
L 69.767351 349.230492 
L 70.687093 348.383398 
L 71.606834 347.268168 
L 72.526576 345.88659 
L 73.906188 343.319781 
L 75.2858 340.168028 
L 76.665412 336.442696 
L 78.045025 332.15722 
L 79.884508 325.59891 
L 81.723991 318.114523 
L 83.563474 309.752028 
L 85.862827 298.146233 
L 88.162181 285.368724 
L 90.921406 268.669918 
L 94.140501 247.611081 
L 97.819467 221.972576 
L 103.797787 178.382192 
L 110.235977 131.729002 
L 113.914943 106.576036 
L 117.134038 86.111324 
L 119.893263 70.038417 
L 122.192616 57.857947 
L 124.49197 46.911449 
L 126.331453 39.116799 
L 128.170936 32.232249 
L 130.010419 26.301923 
L 131.390031 22.50349 
L 132.769644 19.277017 
L 134.149256 16.63414 
L 135.528868 14.584388 
L 136.44861 13.55114 
L 137.368351 12.786489 
L 138.288093 12.291661 
L 139.207834 12.06745 
L 140.127576 12.114215 
L 141.047317 12.43188 
L 141.967059 13.019937 
L 142.8868 13.877442 
L 143.806542 15.003022 
L 144.726283 16.394872 
L 146.105895 18.976907 
L 147.485508 22.14362 
L 148.86512 25.883589 
L 150.244732 30.18333 
L 152.084215 36.759989 
L 153.923698 44.261852 
L 155.763181 52.640838 
L 158.062535 64.265699 
L 160.361889 77.06038 
L 163.121113 93.77705 
L 166.340208 114.852627 
L 170.019174 140.504459 
L 175.997494 184.102529 
L 182.435685 230.744265 
L 186.114651 255.881781 
L 189.333746 276.328019 
L 192.09297 292.381694 
L 194.392324 304.54395 
L 196.691678 315.47044 
L 198.531161 323.247924 
L 200.370644 330.114399 
L 202.210127 336.025854 
L 203.589739 339.809685 
L 204.969351 343.021229 
L 206.348964 345.648905 
L 207.728576 347.683238 
L 208.648317 348.706114 
L 209.568059 349.460336 
L 210.4878 349.944696 
L 211.407542 350.158418 
L 212.327283 350.101159 
L 213.247025 349.773011 
L 214.166766 349.1745 
L 215.086508 348.306585 
L 216.006249 347.170658 
L 216.925991 345.768539 
L 218.305603 343.171284 
L 219.685215 339.98962 
L 221.064828 336.235021 
L 222.44444 331.921026 
L 224.283923 325.326034 
L 226.123406 317.806713 
L 227.962889 309.411258 
L 230.262243 297.767357 
L 232.561596 284.955535 
L 235.320821 268.221042 
L 238.539916 247.128776 
L 242.218882 221.463677 
L 248.197202 177.858027 
L 254.635392 131.227858 
L 258.314358 106.105851 
L 261.533454 85.678135 
L 264.292678 69.643732 
L 266.592032 57.499719 
L 268.891386 46.593264 
L 270.730869 38.832964 
L 272.570352 31.984581 
L 274.409835 26.092011 
L 275.789447 22.322791 
L 277.169059 19.126184 
L 278.548671 16.513715 
L 279.928284 14.494806 
L 280.848025 13.482306 
L 281.767767 12.738514 
L 282.687508 12.264622 
L 283.60725 12.06139 
L 284.526991 12.129143 
L 285.446733 12.467773 
L 286.366474 13.076737 
L 287.286216 13.955059 
L 288.205957 15.10133 
L 289.125699 16.513715 
L 290.505311 19.126184 
L 291.884923 22.322791 
L 293.264535 26.092011 
L 294.644148 30.420249 
L 296.483631 37.033559 
L 298.323114 44.57032 
L 300.162597 52.982225 
L 302.46195 64.645137 
L 304.761304 77.474069 
L 307.520529 94.226346 
L 310.739624 115.335249 
L 314.41859 141.013553 
L 320.396909 184.626678 
L 326.8351 231.24517 
L 330.514066 256.351607 
L 333.733161 276.76075 
L 336.492386 292.775844 
L 338.791739 304.901585 
L 341.091093 315.787978 
L 342.930576 323.531076 
L 344.770059 330.36135 
L 346.609542 336.235021 
L 347.989154 339.98962 
L 349.368767 343.171284 
L 350.748379 345.768539 
L 352.127991 347.77202 
L 353.047733 348.774141 
L 353.967474 349.507501 
L 354.887216 349.970924 
L 355.806957 350.163666 
L 356.726699 350.085419 
L 357.64644 349.736307 
L 358.566182 349.116892 
L 359.485923 348.228165 
L 360.405665 347.071552 
L 361.325406 345.648905 
L 362.705018 343.021229 
L 364.084631 339.809685 
L 365.464243 336.025854 
L 366.843855 331.683383 
L 368.683338 325.051771 
L 370.522821 317.497589 
L 372.362304 309.069254 
L 374.661658 297.387359 
L 376.961012 284.541348 
L 379.720236 267.771328 
L 382.939331 246.645837 
L 386.618297 220.95439 
L 392.596617 177.333894 
L 399.034808 130.727193 
L 402.713774 105.636386 
L 405.932869 85.245864 
L 408.692093 69.250118 
L 410.991447 57.142679 
L 413.290801 46.276373 
L 415.130284 38.550496 
L 416.969767 31.738348 
L 418.80925 25.883589 
L 420.188862 22.14362 
L 421.568474 18.976907 
L 422.948087 16.394872 
L 424.327699 14.406826 
L 425.24744 13.415084 
L 426.167182 12.692158 
L 427.086923 12.239206 
L 428.006665 12.056955 
L 428.926406 12.145696 
L 429.846148 12.505288 
L 430.765889 13.135153 
L 431.685631 14.034283 
L 432.605372 15.201235 
L 433.984985 17.449623 
L 435.364597 20.288196 
L 436.744209 23.706718 
L 438.123821 27.69286 
L 439.963304 33.865549 
L 441.802787 40.981994 
L 443.64227 48.996583 
L 445.941624 60.199055 
L 448.240978 72.612061 
L 451.000202 88.929811 
L 453.759427 106.576036 
L 457.438393 131.729002 
L 462.0371 164.868955 
L 471.694386 234.964411 
L 475.373352 259.831527 
L 478.132577 277.192561 
L 480.891801 293.168921 
L 483.191155 305.258029 
L 485.490509 316.104222 
L 487.329992 323.812859 
L 489.169475 330.606865 
L 491.008958 336.442696 
L 492.38857 340.168028 
L 493.768182 343.319781 
L 495.147794 345.88659 
L 496.527407 347.859198 
L 497.447148 348.840557 
L 498.36689 349.553048 
L 499.286631 349.995528 
L 500.206373 350.167288 
L 501.126114 350.068053 
L 502.045856 349.697982 
L 502.965597 349.057668 
L 503.885339 348.148138 
L 504.80508 346.970849 
L 506.184692 344.707114 
L 507.564304 341.853431 
L 508.943917 338.420093 
L 510.323529 334.419478 
L 512.163012 328.228121 
L 513.542624 322.963406 
L 513.542624 322.963406 
" clip-path="url(#p9b41d60590)" style="fill: none; stroke-dasharray: 7.4,3.2; stroke-dashoffset: 0; stroke: #00b945; stroke-width: 2"/>
   </g>
   <g id="patch_3">
    <path d="M 54.131746 358.622635 
L 54.131746 3.6 
" style="fill: none; stroke: #000000; stroke-width: 0.5; stroke-linejoin: miter; stroke-linecap: square"/>
   </g>
   <g id="patch_4">
    <path d="M 513.542624 358.622635 
L 513.542624 3.6 
" style="fill: none; stroke: #000000; stroke-width: 0.5; stroke-linejoin: miter; stroke-linecap: square"/>
   </g>
   <g id="patch_5">
    <path d="M 54.131746 358.622635 
L 513.542624 358.622635 
" style="fill: none; stroke: #000000; stroke-width: 0.5; stroke-linejoin: miter; stroke-linecap: square"/>
   </g>
   <g id="patch_6">
    <path d="M 54.131746 3.6 
L 513.542624 3.6 
" style="fill: none; stroke: #000000; stroke-width: 0.5; stroke-linejoin: miter; stroke-linecap: square"/>
   </g>
  </g>
 </g>
 <defs>
  <clipPath id="p9b41d60590">
   <rect x="54.131746" y="3.6" width="459.410879" height="355.022635"/>
  </clipPath>
 </defs>
</svg>
