<?xml version="1.0" encoding="utf-8" standalone="no"?>
<!DOCTYPE svg PUBLIC "-//W3C//DTD SVG 1.1//EN"
  "http://www.w3.org/Graphics/SVG/1.1/DTD/svg11.dtd">
<svg xmlns:xlink="http://www.w3.org/1999/xlink" width="531.36pt" height="386.977797pt" viewBox="0 0 531.36 386.977797" xmlns="http://www.w3.org/2000/svg" version="1.1">
 <metadata>
  <rdf:RDF xmlns:dc="http://purl.org/dc/elements/1.1/" xmlns:cc="http://creativecommons.org/ns#" xmlns:rdf="http://www.w3.org/1999/02/22-rdf-syntax-ns#">
   <cc:Work>
    <dc:type rdf:resource="http://purl.org/dc/dcmitype/StillImage"/>
    <dc:date>2025-12-01T21:53:14.165394</dc:date>
    <dc:format>image/svg+xml</dc:format>
    <dc:creator>
     <cc:Agent>
      <dc:title>Matplotlib v3.10.6, https://matplotlib.org/</dc:title>
     </cc:Agent>
    </dc:creator>
   </cc:Work>
  </rdf:RDF>
 </metadata>
 <defs>
  <style type="text/css">*{stroke-linejoin: round; stroke-linecap: butt}</style>
 </defs>
 <g id="figure_1">
  <g id="patch_1">
   <path d="M 0 386.977797 
L 531.36 386.977797 
L 531.36 0 
L 0 0 
L 0 386.977797 
z
" style="fill: none"/>
  </g>
  <g id="axes_1">
   <g id="patch_2">
    <path d="M 54.131746 358.622635 
L 513.542624 358.622635 
L 513.542624 3.6 
L 54.131746 3.6 
L 54.131746 358.622635 
z
" style="fill: none"/>
   </g>
   <g id="matplotlib.axis_1">
    <g id="xtick_1">
     <g id="line2d_1">
      <path d="M 54.131746 358.622635 
L 54.131746 3.6 
" clip-path="url(#p5cff389ace)" style="fill: none; stroke: #b0b0b0; stroke-opacity: 0.3; stroke-width: 0.5; stroke-linecap: square"/>
     </g>
     <g id="line2d_2">
      <defs>
       <path id="mff3dc5781d" d="M 0 0 
L 0 -3 
" style="stroke: #000000; stroke-width: 0.5"/>
      </defs>
      <g>
       <use xlink:href="#mff3dc5781d" x="54.131746" y="358.622635" style="stroke: #000000; stroke-width: 0.5"/>
      </g>
     </g>
     <g id="line2d_3">
      <defs>
       <path id="m309b6fd90b" d="M 0 0 
L 0 3 
" style="stroke: #000000; stroke-width: 0.5"/>
      </defs>
      <g>
       <use xlink:href="#m309b6fd90b" x="54.131746" y="3.6" style="stroke: #000000; stroke-width: 0.5"/>
      </g>
     </g>
     <g id="text_1">
      <!-- $\mathdefault{−1.0}$ -->
      <g transform="translate(30.615873 378.72704) scale(0.24 -0.24)">
       <defs>
        <path id="CMSY10-0" d="M 4218 1472 
C 4326 1472 4442 1472 4442 1600 
C 4442 1728 4326 1728 4218 1728 
L 755 1728 
C 646 1728 531 1728 531 1600 
C 531 1472 646 1472 755 1472 
L 4218 1472 
z
" transform="scale(0.015625)"/>
        <path id="CMR17-31" d="M 1702 4058 
C 1702 4192 1696 4192 1606 4192 
C 1357 3916 979 3827 621 3827 
C 602 3827 570 3827 563 3808 
C 557 3795 557 3782 557 3648 
C 755 3648 1088 3686 1344 3839 
L 1344 461 
C 1344 236 1331 160 781 160 
L 589 160 
L 589 0 
C 896 0 1216 0 1523 0 
C 1830 0 2150 0 2458 0 
L 2458 160 
L 2266 160 
C 1715 160 1702 230 1702 458 
L 1702 4058 
z
" transform="scale(0.015625)"/>
        <path id="CMMI12-3a" d="M 1178 307 
C 1178 492 1024 619 870 619 
C 685 619 557 466 557 313 
C 557 128 710 0 864 0 
C 1050 0 1178 153 1178 307 
z
" transform="scale(0.015625)"/>
        <path id="CMR17-30" d="M 2688 2025 
C 2688 2416 2682 3080 2413 3591 
C 2176 4039 1798 4198 1466 4198 
C 1158 4198 768 4058 525 3597 
C 269 3118 243 2524 243 2025 
C 243 1661 250 1106 448 619 
C 723 -39 1216 -128 1466 -128 
C 1760 -128 2208 -7 2470 600 
C 2662 1042 2688 1559 2688 2025 
z
M 1466 -26 
C 1056 -26 813 325 723 812 
C 653 1188 653 1738 653 2096 
C 653 2588 653 2997 736 3387 
C 858 3929 1216 4096 1466 4096 
C 1728 4096 2067 3923 2189 3400 
C 2272 3036 2278 2607 2278 2096 
C 2278 1680 2278 1169 2202 792 
C 2067 95 1690 -26 1466 -26 
z
" transform="scale(0.015625)"/>
       </defs>
       <use xlink:href="#CMSY10-0" transform="scale(0.996264)"/>
       <use xlink:href="#CMR17-31" transform="translate(77.487468 0) scale(0.996264)"/>
       <use xlink:href="#CMMI12-3a" transform="translate(123.177945 0) scale(0.996264)"/>
       <use xlink:href="#CMR17-30" transform="translate(150.275122 0) scale(0.996264)"/>
      </g>
     </g>
    </g>
    <g id="xtick_2">
     <g id="line2d_4">
      <path d="M 168.984465 358.622635 
L 168.984465 3.6 
" clip-path="url(#p5cff389ace)" style="fill: none; stroke: #b0b0b0; stroke-opacity: 0.3; stroke-width: 0.5; stroke-linecap: square"/>
     </g>
     <g id="line2d_5">
      <g>
       <use xlink:href="#mff3dc5781d" x="168.984465" y="358.622635" style="stroke: #000000; stroke-width: 0.5"/>
      </g>
     </g>
     <g id="line2d_6">
      <g>
       <use xlink:href="#m309b6fd90b" x="168.984465" y="3.6" style="stroke: #000000; stroke-width: 0.5"/>
      </g>
     </g>
     <g id="text_2">
      <!-- $\mathdefault{−0.5}$ -->
      <g transform="translate(145.468592 378.72704) scale(0.24 -0.24)">
       <defs>
        <path id="CMR17-35" d="M 730 3692 
C 794 3666 1056 3584 1325 3584 
C 1920 3584 2246 3911 2432 4100 
C 2432 4157 2432 4192 2394 4192 
C 2387 4192 2374 4192 2323 4163 
C 2099 4058 1837 3973 1517 3973 
C 1325 3973 1037 3999 723 4139 
C 653 4171 640 4171 634 4171 
C 602 4171 595 4164 595 4037 
L 595 2203 
C 595 2089 595 2057 659 2057 
C 691 2057 704 2070 736 2114 
C 941 2401 1222 2522 1542 2522 
C 1766 2522 2246 2382 2246 1289 
C 2246 1085 2246 715 2054 421 
C 1894 159 1645 25 1370 25 
C 947 25 518 320 403 814 
C 429 807 480 795 506 795 
C 589 795 749 840 749 1038 
C 749 1210 627 1280 506 1280 
C 358 1280 262 1190 262 1011 
C 262 454 704 -128 1382 -128 
C 2042 -128 2669 440 2669 1264 
C 2669 2030 2170 2624 1549 2624 
C 1222 2624 947 2503 730 2274 
L 730 3692 
z
" transform="scale(0.015625)"/>
       </defs>
       <use xlink:href="#CMSY10-0" transform="scale(0.996264)"/>
       <use xlink:href="#CMR17-30" transform="translate(77.487468 0) scale(0.996264)"/>
       <use xlink:href="#CMMI12-3a" transform="translate(123.177945 0) scale(0.996264)"/>
       <use xlink:href="#CMR17-35" transform="translate(150.275122 0) scale(0.996264)"/>
      </g>
     </g>
    </g>
    <g id="xtick_3">
     <g id="line2d_7">
      <path d="M 283.837185 358.622635 
L 283.837185 3.6 
" clip-path="url(#p5cff389ace)" style="fill: none; stroke: #b0b0b0; stroke-opacity: 0.3; stroke-width: 0.5; stroke-linecap: square"/>
     </g>
     <g id="line2d_8">
      <g>
       <use xlink:href="#mff3dc5781d" x="283.837185" y="358.622635" style="stroke: #000000; stroke-width: 0.5"/>
      </g>
     </g>
     <g id="line2d_9">
      <g>
       <use xlink:href="#m309b6fd90b" x="283.837185" y="3.6" style="stroke: #000000; stroke-width: 0.5"/>
      </g>
     </g>
     <g id="text_3">
      <!-- $\mathdefault{0.0}$ -->
      <g transform="translate(269.619809 378.72704) scale(0.24 -0.24)">
       <use xlink:href="#CMR17-30" transform="scale(0.996264)"/>
       <use xlink:href="#CMMI12-3a" transform="translate(45.690477 0) scale(0.996264)"/>
       <use xlink:href="#CMR17-30" transform="translate(72.787654 0) scale(0.996264)"/>
      </g>
     </g>
    </g>
    <g id="xtick_4">
     <g id="line2d_10">
      <path d="M 398.689905 358.622635 
L 398.689905 3.6 
" clip-path="url(#p5cff389ace)" style="fill: none; stroke: #b0b0b0; stroke-opacity: 0.3; stroke-width: 0.5; stroke-linecap: square"/>
     </g>
     <g id="line2d_11">
      <g>
       <use xlink:href="#mff3dc5781d" x="398.689905" y="358.622635" style="stroke: #000000; stroke-width: 0.5"/>
      </g>
     </g>
     <g id="line2d_12">
      <g>
       <use xlink:href="#m309b6fd90b" x="398.689905" y="3.6" style="stroke: #000000; stroke-width: 0.5"/>
      </g>
     </g>
     <g id="text_4">
      <!-- $\mathdefault{0.5}$ -->
      <g transform="translate(384.472529 378.72704) scale(0.24 -0.24)">
       <use xlink:href="#CMR17-30" transform="scale(0.996264)"/>
       <use xlink:href="#CMMI12-3a" transform="translate(45.690477 0) scale(0.996264)"/>
       <use xlink:href="#CMR17-35" transform="translate(72.787654 0) scale(0.996264)"/>
      </g>
     </g>
    </g>
    <g id="xtick_5">
     <g id="line2d_13">
      <path d="M 513.542624 358.622635 
L 513.542624 3.6 
" clip-path="url(#p5cff389ace)" style="fill: none; stroke: #b0b0b0; stroke-opacity: 0.3; stroke-width: 0.5; stroke-linecap: square"/>
     </g>
     <g id="line2d_14">
      <g>
       <use xlink:href="#mff3dc5781d" x="513.542624" y="358.622635" style="stroke: #000000; stroke-width: 0.5"/>
      </g>
     </g>
     <g id="line2d_15">
      <g>
       <use xlink:href="#m309b6fd90b" x="513.542624" y="3.6" style="stroke: #000000; stroke-width: 0.5"/>
      </g>
     </g>
     <g id="text_5">
      <!-- $\mathdefault{1.0}$ -->
      <g transform="translate(499.325248 378.72704) scale(0.24 -0.24)">
       <use xlink:href="#CMR17-31" transform="scale(0.996264)"/>
       <use xlink:href="#CMMI12-3a" transform="translate(45.690477 0) scale(0.996264)"/>
       <use xlink:href="#CMR17-30" transform="translate(72.787654 0) scale(0.996264)"/>
      </g>
     </g>
    </g>
    <g id="xtick_6">
     <g id="line2d_16">
      <defs>
       <path id="m9f5d615d61" d="M 0 0 
L 0 -1.5 
" style="stroke: #000000; stroke-width: 0.5"/>
      </defs>
      <g>
       <use xlink:href="#m9f5d615d61" x="77.10229" y="358.622635" style="stroke: #000000; stroke-width: 0.5"/>
      </g>
     </g>
     <g id="line2d_17">
      <defs>
       <path id="m660acaeefc" d="M 0 0 
L 0 1.5 
" style="stroke: #000000; stroke-width: 0.5"/>
      </defs>
      <g>
       <use xlink:href="#m660acaeefc" x="77.10229" y="3.6" style="stroke: #000000; stroke-width: 0.5"/>
      </g>
     </g>
    </g>
    <g id="xtick_7">
     <g id="line2d_18">
      <g>
       <use xlink:href="#m9f5d615d61" x="100.072833" y="358.622635" style="stroke: #000000; stroke-width: 0.5"/>
      </g>
     </g>
     <g id="line2d_19">
      <g>
       <use xlink:href="#m660acaeefc" x="100.072833" y="3.6" style="stroke: #000000; stroke-width: 0.5"/>
      </g>
     </g>
    </g>
    <g id="xtick_8">
     <g id="line2d_20">
      <g>
       <use xlink:href="#m9f5d615d61" x="123.043377" y="358.622635" style="stroke: #000000; stroke-width: 0.5"/>
      </g>
     </g>
     <g id="line2d_21">
      <g>
       <use xlink:href="#m660acaeefc" x="123.043377" y="3.6" style="stroke: #000000; stroke-width: 0.5"/>
      </g>
     </g>
    </g>
    <g id="xtick_9">
     <g id="line2d_22">
      <g>
       <use xlink:href="#m9f5d615d61" x="146.013921" y="358.622635" style="stroke: #000000; stroke-width: 0.5"/>
      </g>
     </g>
     <g id="line2d_23">
      <g>
       <use xlink:href="#m660acaeefc" x="146.013921" y="3.6" style="stroke: #000000; stroke-width: 0.5"/>
      </g>
     </g>
    </g>
    <g id="xtick_10">
     <g id="line2d_24">
      <g>
       <use xlink:href="#m9f5d615d61" x="191.955009" y="358.622635" style="stroke: #000000; stroke-width: 0.5"/>
      </g>
     </g>
     <g id="line2d_25">
      <g>
       <use xlink:href="#m660acaeefc" x="191.955009" y="3.6" style="stroke: #000000; stroke-width: 0.5"/>
      </g>
     </g>
    </g>
    <g id="xtick_11">
     <g id="line2d_26">
      <g>
       <use xlink:href="#m9f5d615d61" x="214.925553" y="358.622635" style="stroke: #000000; stroke-width: 0.5"/>
      </g>
     </g>
     <g id="line2d_27">
      <g>
       <use xlink:href="#m660acaeefc" x="214.925553" y="3.6" style="stroke: #000000; stroke-width: 0.5"/>
      </g>
     </g>
    </g>
    <g id="xtick_12">
     <g id="line2d_28">
      <g>
       <use xlink:href="#m9f5d615d61" x="237.896097" y="358.622635" style="stroke: #000000; stroke-width: 0.5"/>
      </g>
     </g>
     <g id="line2d_29">
      <g>
       <use xlink:href="#m660acaeefc" x="237.896097" y="3.6" style="stroke: #000000; stroke-width: 0.5"/>
      </g>
     </g>
    </g>
    <g id="xtick_13">
     <g id="line2d_30">
      <g>
       <use xlink:href="#m9f5d615d61" x="260.866641" y="358.622635" style="stroke: #000000; stroke-width: 0.5"/>
      </g>
     </g>
     <g id="line2d_31">
      <g>
       <use xlink:href="#m660acaeefc" x="260.866641" y="3.6" style="stroke: #000000; stroke-width: 0.5"/>
      </g>
     </g>
    </g>
    <g id="xtick_14">
     <g id="line2d_32">
      <g>
       <use xlink:href="#m9f5d615d61" x="306.807729" y="358.622635" style="stroke: #000000; stroke-width: 0.5"/>
      </g>
     </g>
     <g id="line2d_33">
      <g>
       <use xlink:href="#m660acaeefc" x="306.807729" y="3.6" style="stroke: #000000; stroke-width: 0.5"/>
      </g>
     </g>
    </g>
    <g id="xtick_15">
     <g id="line2d_34">
      <g>
       <use xlink:href="#m9f5d615d61" x="329.778273" y="358.622635" style="stroke: #000000; stroke-width: 0.5"/>
      </g>
     </g>
     <g id="line2d_35">
      <g>
       <use xlink:href="#m660acaeefc" x="329.778273" y="3.6" style="stroke: #000000; stroke-width: 0.5"/>
      </g>
     </g>
    </g>
    <g id="xtick_16">
     <g id="line2d_36">
      <g>
       <use xlink:href="#m9f5d615d61" x="352.748817" y="358.622635" style="stroke: #000000; stroke-width: 0.5"/>
      </g>
     </g>
     <g id="line2d_37">
      <g>
       <use xlink:href="#m660acaeefc" x="352.748817" y="3.6" style="stroke: #000000; stroke-width: 0.5"/>
      </g>
     </g>
    </g>
    <g id="xtick_17">
     <g id="line2d_38">
      <g>
       <use xlink:href="#m9f5d615d61" x="375.719361" y="358.622635" style="stroke: #000000; stroke-width: 0.5"/>
      </g>
     </g>
     <g id="line2d_39">
      <g>
       <use xlink:href="#m660acaeefc" x="375.719361" y="3.6" style="stroke: #000000; stroke-width: 0.5"/>
      </g>
     </g>
    </g>
    <g id="xtick_18">
     <g id="line2d_40">
      <g>
       <use xlink:href="#m9f5d615d61" x="421.660449" y="358.622635" style="stroke: #000000; stroke-width: 0.5"/>
      </g>
     </g>
     <g id="line2d_41">
      <g>
       <use xlink:href="#m660acaeefc" x="421.660449" y="3.6" style="stroke: #000000; stroke-width: 0.5"/>
      </g>
     </g>
    </g>
    <g id="xtick_19">
     <g id="line2d_42">
      <g>
       <use xlink:href="#m9f5d615d61" x="444.630992" y="358.622635" style="stroke: #000000; stroke-width: 0.5"/>
      </g>
     </g>
     <g id="line2d_43">
      <g>
       <use xlink:href="#m660acaeefc" x="444.630992" y="3.6" style="stroke: #000000; stroke-width: 0.5"/>
      </g>
     </g>
    </g>
    <g id="xtick_20">
     <g id="line2d_44">
      <g>
       <use xlink:href="#m9f5d615d61" x="467.601536" y="358.622635" style="stroke: #000000; stroke-width: 0.5"/>
      </g>
     </g>
     <g id="line2d_45">
      <g>
       <use xlink:href="#m660acaeefc" x="467.601536" y="3.6" style="stroke: #000000; stroke-width: 0.5"/>
      </g>
     </g>
    </g>
    <g id="xtick_21">
     <g id="line2d_46">
      <g>
       <use xlink:href="#m9f5d615d61" x="490.57208" y="358.622635" style="stroke: #000000; stroke-width: 0.5"/>
      </g>
     </g>
     <g id="line2d_47">
      <g>
       <use xlink:href="#m660acaeefc" x="490.57208" y="3.6" style="stroke: #000000; stroke-width: 0.5"/>
      </g>
     </g>
    </g>
   </g>
   <g id="matplotlib.axis_2">
    <g id="ytick_1">
     <g id="line2d_48">
      <path d="M 54.131746 350.169715 
L 513.542624 350.169715 
" clip-path="url(#p5cff389ace)" style="fill: none; stroke: #b0b0b0; stroke-opacity: 0.3; stroke-width: 0.5; stroke-linecap: square"/>
     </g>
     <g id="line2d_49">
      <defs>
       <path id="m3cc37a2bb6" d="M 0 0 
L 3 0 
" style="stroke: #000000; stroke-width: 0.5"/>
      </defs>
      <g>
       <use xlink:href="#m3cc37a2bb6" x="54.131746" y="350.169715" style="stroke: #000000; stroke-width: 0.5"/>
      </g>
     </g>
     <g id="line2d_50">
      <defs>
       <path id="m14b4a6dffc" d="M 0 0 
L -3 0 
" style="stroke: #000000; stroke-width: 0.5"/>
      </defs>
      <g>
       <use xlink:href="#m14b4a6dffc" x="513.542624" y="350.169715" style="stroke: #000000; stroke-width: 0.5"/>
      </g>
     </g>
     <g id="text_6">
      <!-- $\mathdefault{−1.0}$ -->
      <g transform="translate(3.6 358.471918) scale(0.24 -0.24)">
       <use xlink:href="#CMSY10-0" transform="scale(0.996264)"/>
       <use xlink:href="#CMR17-31" transform="translate(77.487468 0) scale(0.996264)"/>
       <use xlink:href="#CMMI12-3a" transform="translate(123.177945 0) scale(0.996264)"/>
       <use xlink:href="#CMR17-30" transform="translate(150.275122 0) scale(0.996264)"/>
      </g>
     </g>
    </g>
    <g id="ytick_2">
     <g id="line2d_51">
      <path d="M 54.131746 265.640516 
L 513.542624 265.640516 
" clip-path="url(#p5cff389ace)" style="fill: none; stroke: #b0b0b0; stroke-opacity: 0.3; stroke-width: 0.5; stroke-linecap: square"/>
     </g>
     <g id="line2d_52">
      <g>
       <use xlink:href="#m3cc37a2bb6" x="54.131746" y="265.640516" style="stroke: #000000; stroke-width: 0.5"/>
      </g>
     </g>
     <g id="line2d_53">
      <g>
       <use xlink:href="#m14b4a6dffc" x="513.542624" y="265.640516" style="stroke: #000000; stroke-width: 0.5"/>
      </g>
     </g>
     <g id="text_7">
      <!-- $\mathdefault{−0.5}$ -->
      <g transform="translate(3.6 273.942719) scale(0.24 -0.24)">
       <use xlink:href="#CMSY10-0" transform="scale(0.996264)"/>
       <use xlink:href="#CMR17-30" transform="translate(77.487468 0) scale(0.996264)"/>
       <use xlink:href="#CMMI12-3a" transform="translate(123.177945 0) scale(0.996264)"/>
       <use xlink:href="#CMR17-35" transform="translate(150.275122 0) scale(0.996264)"/>
      </g>
     </g>
    </g>
    <g id="ytick_3">
     <g id="line2d_54">
      <path d="M 54.131746 181.111317 
L 513.542624 181.111317 
" clip-path="url(#p5cff389ace)" style="fill: none; stroke: #b0b0b0; stroke-opacity: 0.3; stroke-width: 0.5; stroke-linecap: square"/>
     </g>
     <g id="line2d_55">
      <g>
       <use xlink:href="#m3cc37a2bb6" x="54.131746" y="181.111317" style="stroke: #000000; stroke-width: 0.5"/>
      </g>
     </g>
     <g id="line2d_56">
      <g>
       <use xlink:href="#m14b4a6dffc" x="513.542624" y="181.111317" style="stroke: #000000; stroke-width: 0.5"/>
      </g>
     </g>
     <g id="text_8">
      <!-- $\mathdefault{0.0}$ -->
      <g transform="translate(22.196994 189.41352) scale(0.24 -0.24)">
       <use xlink:href="#CMR17-30" transform="scale(0.996264)"/>
       <use xlink:href="#CMMI12-3a" transform="translate(45.690477 0) scale(0.996264)"/>
       <use xlink:href="#CMR17-30" transform="translate(72.787654 0) scale(0.996264)"/>
      </g>
     </g>
    </g>
    <g id="ytick_4">
     <g id="line2d_57">
      <path d="M 54.131746 96.582119 
L 513.542624 96.582119 
" clip-path="url(#p5cff389ace)" style="fill: none; stroke: #b0b0b0; stroke-opacity: 0.3; stroke-width: 0.5; stroke-linecap: square"/>
     </g>
     <g id="line2d_58">
      <g>
       <use xlink:href="#m3cc37a2bb6" x="54.131746" y="96.582119" style="stroke: #000000; stroke-width: 0.5"/>
      </g>
     </g>
     <g id="line2d_59">
      <g>
       <use xlink:href="#m14b4a6dffc" x="513.542624" y="96.582119" style="stroke: #000000; stroke-width: 0.5"/>
      </g>
     </g>
     <g id="text_9">
      <!-- $\mathdefault{0.5}$ -->
      <g transform="translate(22.196994 104.884321) scale(0.24 -0.24)">
       <use xlink:href="#CMR17-30" transform="scale(0.996264)"/>
       <use xlink:href="#CMMI12-3a" transform="translate(45.690477 0) scale(0.996264)"/>
       <use xlink:href="#CMR17-35" transform="translate(72.787654 0) scale(0.996264)"/>
      </g>
     </g>
    </g>
    <g id="ytick_5">
     <g id="line2d_60">
      <path d="M 54.131746 12.05292 
L 513.542624 12.05292 
" clip-path="url(#p5cff389ace)" style="fill: none; stroke: #b0b0b0; stroke-opacity: 0.3; stroke-width: 0.5; stroke-linecap: square"/>
     </g>
     <g id="line2d_61">
      <g>
       <use xlink:href="#m3cc37a2bb6" x="54.131746" y="12.05292" style="stroke: #000000; stroke-width: 0.5"/>
      </g>
     </g>
     <g id="line2d_62">
      <g>
       <use xlink:href="#m14b4a6dffc" x="513.542624" y="12.05292" style="stroke: #000000; stroke-width: 0.5"/>
      </g>
     </g>
     <g id="text_10">
      <!-- $\mathdefault{1.0}$ -->
      <g transform="translate(22.196994 20.355122) scale(0.24 -0.24)">
       <use xlink:href="#CMR17-31" transform="scale(0.996264)"/>
       <use xlink:href="#CMMI12-3a" transform="translate(45.690477 0) scale(0.996264)"/>
       <use xlink:href="#CMR17-30" transform="translate(72.787654 0) scale(0.996264)"/>
      </g>
     </g>
    </g>
    <g id="ytick_6">
     <g id="line2d_63">
      <defs>
       <path id="mb33d8ee1b0" d="M 0 0 
L 1.5 0 
" style="stroke: #000000; stroke-width: 0.5"/>
      </defs>
      <g>
       <use xlink:href="#mb33d8ee1b0" x="54.131746" y="333.263875" style="stroke: #000000; stroke-width: 0.5"/>
      </g>
     </g>
     <g id="line2d_64">
      <defs>
       <path id="me3cbc270c1" d="M 0 0 
L -1.5 0 
" style="stroke: #000000; stroke-width: 0.5"/>
      </defs>
      <g>
       <use xlink:href="#me3cbc270c1" x="513.542624" y="333.263875" style="stroke: #000000; stroke-width: 0.5"/>
      </g>
     </g>
    </g>
    <g id="ytick_7">
     <g id="line2d_65">
      <g>
       <use xlink:href="#mb33d8ee1b0" x="54.131746" y="316.358035" style="stroke: #000000; stroke-width: 0.5"/>
      </g>
     </g>
     <g id="line2d_66">
      <g>
       <use xlink:href="#me3cbc270c1" x="513.542624" y="316.358035" style="stroke: #000000; stroke-width: 0.5"/>
      </g>
     </g>
    </g>
    <g id="ytick_8">
     <g id="line2d_67">
      <g>
       <use xlink:href="#mb33d8ee1b0" x="54.131746" y="299.452196" style="stroke: #000000; stroke-width: 0.5"/>
      </g>
     </g>
     <g id="line2d_68">
      <g>
       <use xlink:href="#me3cbc270c1" x="513.542624" y="299.452196" style="stroke: #000000; stroke-width: 0.5"/>
      </g>
     </g>
    </g>
    <g id="ytick_9">
     <g id="line2d_69">
      <g>
       <use xlink:href="#mb33d8ee1b0" x="54.131746" y="282.546356" style="stroke: #000000; stroke-width: 0.5"/>
      </g>
     </g>
     <g id="line2d_70">
      <g>
       <use xlink:href="#me3cbc270c1" x="513.542624" y="282.546356" style="stroke: #000000; stroke-width: 0.5"/>
      </g>
     </g>
    </g>
    <g id="ytick_10">
     <g id="line2d_71">
      <g>
       <use xlink:href="#mb33d8ee1b0" x="54.131746" y="248.734676" style="stroke: #000000; stroke-width: 0.5"/>
      </g>
     </g>
     <g id="line2d_72">
      <g>
       <use xlink:href="#me3cbc270c1" x="513.542624" y="248.734676" style="stroke: #000000; stroke-width: 0.5"/>
      </g>
     </g>
    </g>
    <g id="ytick_11">
     <g id="line2d_73">
      <g>
       <use xlink:href="#mb33d8ee1b0" x="54.131746" y="231.828837" style="stroke: #000000; stroke-width: 0.5"/>
      </g>
     </g>
     <g id="line2d_74">
      <g>
       <use xlink:href="#me3cbc270c1" x="513.542624" y="231.828837" style="stroke: #000000; stroke-width: 0.5"/>
      </g>
     </g>
    </g>
    <g id="ytick_12">
     <g id="line2d_75">
      <g>
       <use xlink:href="#mb33d8ee1b0" x="54.131746" y="214.922997" style="stroke: #000000; stroke-width: 0.5"/>
      </g>
     </g>
     <g id="line2d_76">
      <g>
       <use xlink:href="#me3cbc270c1" x="513.542624" y="214.922997" style="stroke: #000000; stroke-width: 0.5"/>
      </g>
     </g>
    </g>
    <g id="ytick_13">
     <g id="line2d_77">
      <g>
       <use xlink:href="#mb33d8ee1b0" x="54.131746" y="198.017157" style="stroke: #000000; stroke-width: 0.5"/>
      </g>
     </g>
     <g id="line2d_78">
      <g>
       <use xlink:href="#me3cbc270c1" x="513.542624" y="198.017157" style="stroke: #000000; stroke-width: 0.5"/>
      </g>
     </g>
    </g>
    <g id="ytick_14">
     <g id="line2d_79">
      <g>
       <use xlink:href="#mb33d8ee1b0" x="54.131746" y="164.205478" style="stroke: #000000; stroke-width: 0.5"/>
      </g>
     </g>
     <g id="line2d_80">
      <g>
       <use xlink:href="#me3cbc270c1" x="513.542624" y="164.205478" style="stroke: #000000; stroke-width: 0.5"/>
      </g>
     </g>
    </g>
    <g id="ytick_15">
     <g id="line2d_81">
      <g>
       <use xlink:href="#mb33d8ee1b0" x="54.131746" y="147.299638" style="stroke: #000000; stroke-width: 0.5"/>
      </g>
     </g>
     <g id="line2d_82">
      <g>
       <use xlink:href="#me3cbc270c1" x="513.542624" y="147.299638" style="stroke: #000000; stroke-width: 0.5"/>
      </g>
     </g>
    </g>
    <g id="ytick_16">
     <g id="line2d_83">
      <g>
       <use xlink:href="#mb33d8ee1b0" x="54.131746" y="130.393798" style="stroke: #000000; stroke-width: 0.5"/>
      </g>
     </g>
     <g id="line2d_84">
      <g>
       <use xlink:href="#me3cbc270c1" x="513.542624" y="130.393798" style="stroke: #000000; stroke-width: 0.5"/>
      </g>
     </g>
    </g>
    <g id="ytick_17">
     <g id="line2d_85">
      <g>
       <use xlink:href="#mb33d8ee1b0" x="54.131746" y="113.487958" style="stroke: #000000; stroke-width: 0.5"/>
      </g>
     </g>
     <g id="line2d_86">
      <g>
       <use xlink:href="#me3cbc270c1" x="513.542624" y="113.487958" style="stroke: #000000; stroke-width: 0.5"/>
      </g>
     </g>
    </g>
    <g id="ytick_18">
     <g id="line2d_87">
      <g>
       <use xlink:href="#mb33d8ee1b0" x="54.131746" y="79.676279" style="stroke: #000000; stroke-width: 0.5"/>
      </g>
     </g>
     <g id="line2d_88">
      <g>
       <use xlink:href="#me3cbc270c1" x="513.542624" y="79.676279" style="stroke: #000000; stroke-width: 0.5"/>
      </g>
     </g>
    </g>
    <g id="ytick_19">
     <g id="line2d_89">
      <g>
       <use xlink:href="#mb33d8ee1b0" x="54.131746" y="62.770439" style="stroke: #000000; stroke-width: 0.5"/>
      </g>
     </g>
     <g id="line2d_90">
      <g>
       <use xlink:href="#me3cbc270c1" x="513.542624" y="62.770439" style="stroke: #000000; stroke-width: 0.5"/>
      </g>
     </g>
    </g>
    <g id="ytick_20">
     <g id="line2d_91">
      <g>
       <use xlink:href="#mb33d8ee1b0" x="54.131746" y="45.864599" style="stroke: #000000; stroke-width: 0.5"/>
      </g>
     </g>
     <g id="line2d_92">
      <g>
       <use xlink:href="#me3cbc270c1" x="513.542624" y="45.864599" style="stroke: #000000; stroke-width: 0.5"/>
      </g>
     </g>
    </g>
    <g id="ytick_21">
     <g id="line2d_93">
      <g>
       <use xlink:href="#mb33d8ee1b0" x="54.131746" y="28.95876" style="stroke: #000000; stroke-width: 0.5"/>
      </g>
     </g>
     <g id="line2d_94">
      <g>
       <use xlink:href="#me3cbc270c1" x="513.542624" y="28.95876" style="stroke: #000000; stroke-width: 0.5"/>
      </g>
     </g>
    </g>
   </g>
   <g id="line2d_95">
    <path d="M 54.131746 198.017157 
L 72.066705 199.448922 
L 87.70231 200.910771 
L 101.958304 202.462688 
L 114.834685 204.089459 
L 126.331453 205.766695 
L 136.44861 207.459108 
L 145.646025 209.212705 
L 153.923698 211.003236 
L 161.741501 212.917219 
L 168.639562 214.821764 
L 175.077753 216.817309 
L 181.056072 218.894167 
L 186.574521 221.037875 
L 191.6331 223.22836 
L 196.231807 225.439228 
L 200.830515 227.895068 
L 204.969351 230.350192 
L 209.108188 233.077268 
L 212.787154 235.768061 
L 216.46612 238.75273 
L 219.685215 241.645131 
L 222.904311 244.843144 
L 225.663535 247.865997 
L 228.42276 251.189881 
L 231.181984 254.862121 
L 233.941209 258.940506 
L 236.240562 262.70037 
L 238.539916 266.841946 
L 240.83927 271.426472 
L 243.138624 276.529023 
L 245.437977 282.242658 
L 247.737331 288.684145 
L 249.576814 294.459867 
L 251.416297 300.890991 
L 253.25578 308.095783 
L 255.095263 316.222789 
L 256.934746 325.46118 
L 258.774229 336.055665 
L 260.613712 348.328485 
L 260.613712 348.328485 
" clip-path="url(#p5cff389ace)" style="fill: none; stroke: #0c5da5; stroke-width: 3; stroke-linecap: square"/>
   </g>
   <g id="line2d_96">
    <path d="M 307.060658 13.89415 
L 308.900141 26.16697 
L 310.739624 36.761455 
L 312.579107 45.999846 
L 314.41859 54.126852 
L 316.258073 61.331644 
L 318.097556 67.762768 
L 320.396909 74.891607 
L 322.696263 81.176797 
L 324.995617 86.759731 
L 327.294971 91.751879 
L 329.594324 96.242303 
L 331.893678 100.303021 
L 334.652903 104.690802 
L 337.412127 108.626623 
L 340.171352 112.176893 
L 342.930576 115.395621 
L 346.149671 118.790528 
L 349.368767 121.8519 
L 352.587862 124.626589 
L 356.266828 127.495654 
L 359.945794 130.087348 
L 364.084631 132.718957 
L 368.223467 135.092424 
L 372.822175 137.470661 
L 377.880753 139.81808 
L 382.939331 141.925856 
L 388.45778 143.992781 
L 394.4361 145.999189 
L 400.874291 147.930701 
L 408.232223 149.893325 
L 416.050025 151.739258 
L 424.78757 153.560039 
L 433.984985 155.247713 
L 444.102141 156.880422 
L 455.59891 158.502303 
L 468.01542 160.026506 
L 481.811543 161.495831 
L 497.447148 162.931625 
L 513.542624 164.205478 
L 513.542624 164.205478 
" clip-path="url(#p5cff389ace)" style="fill: none; stroke: #0c5da5; stroke-width: 3; stroke-linecap: square"/>
   </g>
   <g id="line2d_97">
    <path d="M 54.131746 195.181661 
L 54.591616 199.126015 
L 55.051487 200.300989 
L 55.511358 200.016608 
L 56.89097 197.313586 
L 57.350841 196.807328 
L 57.810712 196.629628 
L 58.270582 196.742767 
L 58.730453 197.078848 
L 61.489678 199.839446 
L 61.949548 200.008021 
L 62.86929 199.997472 
L 63.789031 199.625531 
L 66.548256 198.056757 
L 67.467997 197.838311 
L 68.387739 197.869929 
L 69.30748 198.132142 
L 70.687093 198.831819 
L 73.446317 200.399387 
L 74.825929 200.852206 
L 75.745671 200.96485 
L 77.125283 200.866796 
L 78.964766 200.389714 
L 81.723991 199.580906 
L 83.103603 199.392915 
L 84.483215 199.436233 
L 85.862827 199.713128 
L 87.70231 200.368896 
L 92.760889 202.421899 
L 94.140501 202.717007 
L 95.520113 202.836464 
L 97.359596 202.747655 
L 99.65895 202.374105 
L 102.878045 201.825967 
L 104.717528 201.723543 
L 106.557011 201.865383 
L 108.396494 202.259857 
L 110.695848 203.03842 
L 117.134038 205.464329 
L 118.973521 205.856979 
L 120.813004 206.04219 
L 123.112358 206.014431 
L 126.331453 205.69462 
L 129.550548 205.423809 
L 131.849902 205.471982 
L 133.689385 205.720992 
L 135.528868 206.167328 
L 137.828222 206.969374 
L 141.047317 208.375374 
L 145.186154 210.156935 
L 147.485508 210.908404 
L 149.784861 211.406535 
L 152.084215 211.650529 
L 154.84344 211.68552 
L 160.821759 211.623092 
L 163.121113 211.874735 
L 164.960596 212.274002 
L 166.800079 212.865435 
L 169.099433 213.863115 
L 171.858657 215.36229 
L 180.136331 220.157057 
L 182.435685 221.133268 
L 184.735038 221.860223 
L 187.034392 222.359425 
L 190.253487 222.808547 
L 194.392324 223.398717 
L 196.691678 223.973384 
L 198.531161 224.653634 
L 200.370644 225.571056 
L 202.210127 226.744511 
L 204.04961 228.172638 
L 206.348964 230.280994 
L 209.108188 233.171025 
L 217.385862 242.13957 
L 219.685215 244.216108 
L 221.984569 246.024035 
L 224.743794 247.91688 
L 229.342501 251.031072 
L 231.181984 252.571775 
L 232.561596 253.953729 
L 233.941209 255.58917 
L 235.320821 257.528231 
L 236.700433 259.815314 
L 238.080045 262.486623 
L 239.459658 265.567843 
L 241.299141 270.334281 
L 243.138624 275.8413 
L 244.978107 282.028015 
L 247.27746 290.53649 
L 255.095263 320.458082 
L 256.474875 324.76634 
L 257.854488 328.424549 
L 258.774229 330.431507 
L 259.693971 332.044952 
L 260.613712 333.225507 
L 261.533454 333.935925 
L 261.993324 334.103892 
L 262.453195 334.14156 
L 262.913066 334.045082 
L 263.372937 333.810824 
L 263.832807 333.435387 
L 264.752549 332.248594 
L 265.67229 330.462556 
L 266.592032 328.05953 
L 267.511773 325.026474 
L 268.431515 321.355298 
L 269.811127 314.647063 
L 271.190739 306.510148 
L 272.570352 296.984288 
L 273.949964 286.136349 
L 275.789447 269.780557 
L 277.62893 251.531664 
L 279.928284 226.609071 
L 283.60725 183.833071 
L 288.205957 130.474794 
L 290.505311 105.969419 
L 292.344794 88.162792 
L 294.184277 72.328346 
L 296.02376 58.73594 
L 297.403372 50.130305 
L 298.782984 42.943142 
L 300.162597 37.195983 
L 301.082338 34.162944 
L 302.00208 31.759933 
L 302.921821 29.97391 
L 303.841563 28.787131 
L 304.761304 28.17745 
L 305.221175 28.080978 
L 305.681046 28.118653 
L 306.140916 28.286625 
L 307.060658 28.997053 
L 307.980399 30.177618 
L 308.900141 31.791072 
L 309.819882 33.798037 
L 311.199494 37.456254 
L 312.579107 41.764518 
L 314.41859 48.269793 
L 317.177814 58.978328 
L 321.776522 76.880181 
L 324.075875 84.894759 
L 325.915358 90.579492 
L 327.754841 95.533898 
L 329.594324 99.735934 
L 330.973937 102.407242 
L 332.353549 104.694323 
L 333.733161 106.633385 
L 335.112773 108.268827 
L 336.952256 110.064285 
L 338.791739 111.53614 
L 341.550964 113.412162 
L 345.689801 116.198555 
L 347.989154 118.006489 
L 350.288508 120.083031 
L 353.047733 122.905534 
L 358.106311 128.544478 
L 361.325406 131.941603 
L 363.62476 134.049957 
L 365.464243 135.478083 
L 367.303726 136.651537 
L 369.143209 137.568961 
L 370.982692 138.249214 
L 373.282046 138.823885 
L 376.04127 139.248466 
L 381.099848 139.947406 
L 383.399202 140.488205 
L 385.698556 141.26481 
L 387.99791 142.289262 
L 390.757134 143.793853 
L 399.034808 148.580098 
L 401.334161 149.523001 
L 403.173644 150.066213 
L 405.013127 150.418801 
L 407.312481 150.621793 
L 410.071706 150.622113 
L 415.130284 150.549971 
L 417.429638 150.747938 
L 419.728991 151.193506 
L 422.028345 151.897113 
L 424.78757 153.014261 
L 431.22576 155.76357 
L 433.525114 156.4083 
L 435.364597 156.707067 
L 437.20408 156.811532 
L 439.503434 156.715779 
L 446.401495 156.165226 
L 448.240978 156.300191 
L 450.080461 156.641201 
L 452.379815 157.339993 
L 455.59891 158.627232 
L 458.358134 159.682744 
L 460.197617 160.190093 
L 462.0371 160.460648 
L 463.876583 160.475801 
L 465.716066 160.271889 
L 471.694386 159.384072 
L 473.073998 159.44651 
L 474.453611 159.683307 
L 476.293094 160.256617 
L 479.052318 161.452217 
L 481.351672 162.371494 
L 482.731284 162.718775 
L 484.110896 162.842065 
L 485.490509 162.727796 
L 487.329992 162.275621 
L 490.549087 161.355731 
L 491.928699 161.257673 
L 492.848441 161.370316 
L 494.228053 161.823093 
L 495.607665 162.552822 
L 497.907019 163.888909 
L 498.82676 164.247402 
L 499.746502 164.399304 
L 500.666243 164.305476 
L 501.585985 163.969816 
L 502.965597 163.156937 
L 504.345209 162.37588 
L 505.264951 162.165412 
L 505.724822 162.21443 
L 506.184692 162.38312 
L 507.104434 163.076942 
L 509.403787 165.479578 
L 509.863658 165.592816 
L 510.323529 165.415039 
L 510.7834 164.908847 
L 511.703141 163.102034 
L 512.163012 162.205828 
L 512.622883 161.921682 
L 513.082753 163.096608 
L 513.542624 167.041156 
L 513.542624 167.041156 
" clip-path="url(#p5cff389ace)" style="fill: none; stroke-dasharray: 7.4,3.2; stroke-dashoffset: 0; stroke: #00b945; stroke-width: 2"/>
   </g>
   <g id="patch_3">
    <path d="M 54.131746 358.622635 
L 54.131746 3.6 
" style="fill: none; stroke: #000000; stroke-width: 0.5; stroke-linejoin: miter; stroke-linecap: square"/>
   </g>
   <g id="patch_4">
    <path d="M 513.542624 358.622635 
L 513.542624 3.6 
" style="fill: none; stroke: #000000; stroke-width: 0.5; stroke-linejoin: miter; stroke-linecap: square"/>
   </g>
   <g id="patch_5">
    <path d="M 54.131746 358.622635 
L 513.542624 358.622635 
" style="fill: none; stroke: #000000; stroke-width: 0.5; stroke-linejoin: miter; stroke-linecap: square"/>
   </g>
   <g id="patch_6">
    <path d="M 54.131746 3.6 
L 513.542624 3.6 
" style="fill: none; stroke: #000000; stroke-width: 0.5; stroke-linejoin: miter; stroke-linecap: square"/>
   </g>
  </g>
 </g>
 <defs>
  <clipPath id="p5cff389ace">
   <rect x="54.131746" y="3.6" width="459.410879" height="355.022635"/>
  </clipPath>
 </defs>
</svg>
