<?xml version="1.0" encoding="UTF-8"?>
<!DOCTYPE svg PUBLIC "-//W3C//DTD SVG 1.1//EN" "http://www.w3.org/Graphics/SVG/1.1/DTD/svg11.dtd">
<svg xmlns="http://www.w3.org/2000/svg" style="background: transparent; background-color: transparent; color-scheme: light;" xmlns:xlink="http://www.w3.org/1999/xlink" version="1.1" width="301px" height="131px" viewBox="0 0 301 131"><defs><style xmlns="http://www.w3.org/1999/xhtml" id="MJX-SVG-styles">&#xa;mjx-container[jax="SVG"] {&#xa;  direction: ltr;&#xa;}&#xa;&#xa;mjx-container[jax="SVG"] &gt; svg {&#xa;  overflow: visible;&#xa;  min-height: 1px;&#xa;  min-width: 1px;&#xa;}&#xa;&#xa;mjx-container[jax="SVG"] &gt; svg a {&#xa;  fill: blue;&#xa;  stroke: blue;&#xa;}&#xa;&#xa;mjx-container[jax="SVG"][display="true"] {&#xa;  display: block;&#xa;  text-align: center;&#xa;  margin: 1em 0;&#xa;}&#xa;&#xa;mjx-container[jax="SVG"][display="true"][width="full"] {&#xa;  display: flex;&#xa;}&#xa;&#xa;mjx-container[jax="SVG"][justify="left"] {&#xa;  text-align: left;&#xa;}&#xa;&#xa;mjx-container[jax="SVG"][justify="right"] {&#xa;  text-align: right;&#xa;}&#xa;&#xa;g[data-mml-node="merror"] &gt; g {&#xa;  fill: red;&#xa;  stroke: red;&#xa;}&#xa;&#xa;g[data-mml-node="merror"] &gt; rect[data-background] {&#xa;  fill: yellow;&#xa;  stroke: none;&#xa;}&#xa;&#xa;g[data-mml-node="mtable"] &gt; line[data-line], svg[data-table] &gt; g &gt; line[data-line] {&#xa;  stroke-width: 70px;&#xa;  fill: none;&#xa;}&#xa;&#xa;g[data-mml-node="mtable"] &gt; rect[data-frame], svg[data-table] &gt; g &gt; rect[data-frame] {&#xa;  stroke-width: 70px;&#xa;  fill: none;&#xa;}&#xa;&#xa;g[data-mml-node="mtable"] &gt; .mjx-dashed, svg[data-table] &gt; g &gt; .mjx-dashed {&#xa;  stroke-dasharray: 140;&#xa;}&#xa;&#xa;g[data-mml-node="mtable"] &gt; .mjx-dotted, svg[data-table] &gt; g &gt; .mjx-dotted {&#xa;  stroke-linecap: round;&#xa;  stroke-dasharray: 0,140;&#xa;}&#xa;&#xa;g[data-mml-node="mtable"] &gt; g &gt; svg {&#xa;  overflow: visible;&#xa;}&#xa;&#xa;[jax="SVG"] mjx-tool {&#xa;  display: inline-block;&#xa;  position: relative;&#xa;  width: 0;&#xa;  height: 0;&#xa;}&#xa;&#xa;[jax="SVG"] mjx-tool &gt; mjx-tip {&#xa;  position: absolute;&#xa;  top: 0;&#xa;  left: 0;&#xa;}&#xa;&#xa;mjx-tool &gt; mjx-tip {&#xa;  display: inline-block;&#xa;  padding: .2em;&#xa;  border: 1px solid #888;&#xa;  font-size: 70%;&#xa;  background-color: #F8F8F8;&#xa;  color: black;&#xa;  box-shadow: 2px 2px 5px #AAAAAA;&#xa;}&#xa;&#xa;g[data-mml-node="maction"][data-toggle] {&#xa;  cursor: pointer;&#xa;}&#xa;&#xa;mjx-status {&#xa;  display: block;&#xa;  position: fixed;&#xa;  left: 1em;&#xa;  bottom: 1em;&#xa;  min-width: 25%;&#xa;  padding: .2em .4em;&#xa;  border: 1px solid #888;&#xa;  font-size: 90%;&#xa;  background-color: #F8F8F8;&#xa;  color: black;&#xa;}&#xa;&#xa;foreignObject[data-mjx-xml] {&#xa;  font-family: initial;&#xa;  line-height: normal;&#xa;  overflow: visible;&#xa;}&#xa;&#xa;mjx-container[jax="SVG"] path[data-c], mjx-container[jax="SVG"] use[data-c] {&#xa;  stroke-width: 3;&#xa;}&#xa;</style></defs><g><g data-cell-id="0"><g data-cell-id="1"><g data-cell-id="tfTe3zmlSMlGVa0WkZtf-4"><g><path d="M 23 51 L 263 51" fill="none" stroke="#000000" stroke-miterlimit="10" pointer-events="stroke" style="stroke: rgb(0, 0, 0);"/></g></g><g data-cell-id="NW7OtWqJ4tj4hm9yvT24-1"/><g data-cell-id="NW7OtWqJ4tj4hm9yvT24-2"/><g data-cell-id="NW7OtWqJ4tj4hm9yvT24-5"/><g data-cell-id="NW7OtWqJ4tj4hm9yvT24-6"/><g data-cell-id="NW7OtWqJ4tj4hm9yvT24-7"/><g data-cell-id="NW7OtWqJ4tj4hm9yvT24-11"/><g data-cell-id="NW7OtWqJ4tj4hm9yvT24-12"/><g data-cell-id="NW7OtWqJ4tj4hm9yvT24-15"/><g data-cell-id="NW7OtWqJ4tj4hm9yvT24-16"/><g data-cell-id="NW7OtWqJ4tj4hm9yvT24-19"/><g data-cell-id="NW7OtWqJ4tj4hm9yvT24-20"/><g data-cell-id="NW7OtWqJ4tj4hm9yvT24-22"/><g data-cell-id="NW7OtWqJ4tj4hm9yvT24-23"/><g data-cell-id="NW7OtWqJ4tj4hm9yvT24-24"/><g data-cell-id="NW7OtWqJ4tj4hm9yvT24-28"/><g data-cell-id="NW7OtWqJ4tj4hm9yvT24-29"/><g data-cell-id="NW7OtWqJ4tj4hm9yvT24-32"/><g data-cell-id="NW7OtWqJ4tj4hm9yvT24-33"/><g data-cell-id="NW7OtWqJ4tj4hm9yvT24-34"/><g data-cell-id="tfTe3zmlSMlGVa0WkZtf-1"><g><path d="M 23 10 L 66 50 L 23 90 Z" fill="#dae8fc" stroke="#6c8ebf" stroke-miterlimit="10" pointer-events="all" style="fill: rgb(218, 232, 252); stroke: rgb(108, 142, 191);"/></g></g><g data-cell-id="tfTe3zmlSMlGVa0WkZtf-2"><g><rect x="103" y="10" width="80" height="80" rx="12" ry="12" fill="#d5e8d4" stroke="#82b366" pointer-events="all" style="fill: rgb(213, 232, 212); stroke: rgb(130, 179, 102);"/></g><g><g><switch><foreignObject style="overflow: visible; text-align: left;" pointer-events="none" width="100%" height="100%" requiredFeatures="http://www.w3.org/TR/SVG11/feature#Extensibility"><div xmlns="http://www.w3.org/1999/xhtml" style="display: flex; align-items: unsafe center; justify-content: unsafe center; width: 78px; height: 1px; padding-top: 50px; margin-left: 104px;"><div style="box-sizing: border-box; font-size: 0; text-align: center; color: #000000; "><div style="display: inline-block; font-size: 24px; font-family: Helvetica; color: #000000; line-height: 1.2; pointer-events: all; white-space: normal; word-wrap: normal; "><mjx-container class="MathJax" jax="SVG" display="true"><svg xmlns="http://www.w3.org/2000/svg" width="2.687ex" height="2.213ex" role="img" focusable="false" viewBox="0 -683 1187.4 978" xmlns:xlink="http://www.w3.org/1999/xlink" style="vertical-align: -0.667ex;"><defs><path id="MJX-13-TEX-I-1D448" d="M107 637Q73 637 71 641Q70 643 70 649Q70 673 81 682Q83 683 98 683Q139 681 234 681Q268 681 297 681T342 682T362 682Q378 682 378 672Q378 670 376 658Q371 641 366 638H364Q362 638 359 638T352 638T343 637T334 637Q295 636 284 634T266 623Q265 621 238 518T184 302T154 169Q152 155 152 140Q152 86 183 55T269 24Q336 24 403 69T501 205L552 406Q599 598 599 606Q599 633 535 637Q511 637 511 648Q511 650 513 660Q517 676 519 679T529 683Q532 683 561 682T645 680Q696 680 723 681T752 682Q767 682 767 672Q767 650 759 642Q756 637 737 637Q666 633 648 597Q646 592 598 404Q557 235 548 205Q515 105 433 42T263 -22Q171 -22 116 34T60 167V183Q60 201 115 421Q164 622 164 628Q164 635 107 637Z"/><path id="MJX-13-TEX-I-1D719" d="M409 688Q413 694 421 694H429H442Q448 688 448 686Q448 679 418 563Q411 535 404 504T392 458L388 442Q388 441 397 441T429 435T477 418Q521 397 550 357T579 260T548 151T471 65T374 11T279 -10H275L251 -105Q245 -128 238 -160Q230 -192 227 -198T215 -205H209Q189 -205 189 -198Q189 -193 211 -103L234 -11Q234 -10 226 -10Q221 -10 206 -8T161 6T107 36T62 89T43 171Q43 231 76 284T157 370T254 422T342 441Q347 441 348 445L378 567Q409 686 409 688ZM122 150Q122 116 134 91T167 53T203 35T237 27H244L337 404Q333 404 326 403T297 395T255 379T211 350T170 304Q152 276 137 237Q122 191 122 150ZM500 282Q500 320 484 347T444 385T405 400T381 404H378L332 217L284 29Q284 27 285 27Q293 27 317 33T357 47Q400 66 431 100T475 170T494 234T500 282Z"/></defs><g stroke="currentColor" fill="currentColor" stroke-width="0" transform="scale(1,-1)"><g data-mml-node="math"><g data-mml-node="msub"><g data-mml-node="mi"><use data-c="1D448" xlink:href="#MJX-13-TEX-I-1D448"/></g><g data-mml-node="mi" transform="translate(716,-150) scale(0.707)"><use data-c="1D719" xlink:href="#MJX-13-TEX-I-1D719"/></g></g></g></g></svg></mjx-container></div></div></div></foreignObject><text x="143" y="57" fill="light-dark(#000000, #ffffff)" font-family="Helvetica" font-size="24px" text-anchor="middle">$$U_\ph...</text></switch></g></g></g><g data-cell-id="tfTe3zmlSMlGVa0WkZtf-3"><g><path d="M 223 11 Q 263 11 263 51 Q 263 91 223 91 Z" fill="#e1d5e7" stroke="#9673a6" stroke-miterlimit="10" pointer-events="all" style="fill: rgb(225, 213, 231); stroke: rgb(150, 115, 166);"/></g></g><g data-cell-id="tfTe3zmlSMlGVa0WkZtf-5"><g><rect x="9.5" y="90" width="60" height="30" fill="none" stroke="none" pointer-events="all"/></g><g><g><switch><foreignObject style="overflow: visible; text-align: left;" pointer-events="none" width="100%" height="100%" requiredFeatures="http://www.w3.org/TR/SVG11/feature#Extensibility"><div xmlns="http://www.w3.org/1999/xhtml" style="display: flex; align-items: unsafe center; justify-content: unsafe center; width: 58px; height: 1px; padding-top: 105px; margin-left: 11px;"><div style="box-sizing: border-box; font-size: 0; text-align: center; color: #000000; "><div style="display: inline-block; font-size: 16px; font-family: 'Times New Roman'; color: #000000; line-height: 1.2; pointer-events: all; white-space: normal; word-wrap: normal; ">Probe</div></div></div></foreignObject><text x="40" y="110" fill="light-dark(#000000, #ffffff)" font-family="'Times New Roman'" font-size="16px" text-anchor="middle">Probe</text></switch></g></g></g><g data-cell-id="tfTe3zmlSMlGVa0WkZtf-6"><g><rect x="116.5" y="90" width="60" height="30" fill="none" stroke="none" pointer-events="all"/></g><g><g><switch><foreignObject style="overflow: visible; text-align: left;" pointer-events="none" width="100%" height="100%" requiredFeatures="http://www.w3.org/TR/SVG11/feature#Extensibility"><div xmlns="http://www.w3.org/1999/xhtml" style="display: flex; align-items: unsafe center; justify-content: unsafe center; width: 58px; height: 1px; padding-top: 105px; margin-left: 118px;"><div style="box-sizing: border-box; font-size: 0; text-align: center; color: #000000; "><div style="display: inline-block; font-size: 16px; font-family: 'Times New Roman'; color: #000000; line-height: 1.2; pointer-events: all; white-space: normal; word-wrap: normal; ">Signal</div></div></div></foreignObject><text x="147" y="110" fill="light-dark(#000000, #ffffff)" font-family="'Times New Roman'" font-size="16px" text-anchor="middle">Signal</text></switch></g></g></g><g data-cell-id="tfTe3zmlSMlGVa0WkZtf-7"><g><rect x="216.5" y="90" width="60" height="30" fill="none" stroke="none" pointer-events="all"/></g><g><g><switch><foreignObject style="overflow: visible; text-align: left;" pointer-events="none" width="100%" height="100%" requiredFeatures="http://www.w3.org/TR/SVG11/feature#Extensibility"><div xmlns="http://www.w3.org/1999/xhtml" style="display: flex; align-items: unsafe center; justify-content: unsafe center; width: 58px; height: 1px; padding-top: 105px; margin-left: 218px;"><div style="box-sizing: border-box; font-size: 0; text-align: center; color: #000000; "><div style="display: inline-block; font-size: 16px; font-family: 'Times New Roman'; color: #000000; line-height: 1.2; pointer-events: all; white-space: normal; word-wrap: normal; ">Measurement</div></div></div></foreignObject><text x="247" y="110" fill="light-dark(#000000, #ffffff)" font-family="'Times New Roman'" font-size="16px" text-anchor="middle">Measure...</text></switch></g></g></g></g></g></g></svg>