<?xml version="1.0" encoding="UTF-8"?>
<!DOCTYPE svg PUBLIC "-//W3C//DTD SVG 1.1//EN" "http://www.w3.org/Graphics/SVG/1.1/DTD/svg11.dtd">
<svg xmlns="http://www.w3.org/2000/svg" style="background: transparent; background-color: transparent; color-scheme: light;" xmlns:xlink="http://www.w3.org/1999/xlink" version="1.1" width="492px" height="60px" viewBox="0 0 492 60"><defs><style xmlns="http://www.w3.org/1999/xhtml" id="MJX-SVG-styles">&#xa;mjx-container[jax="SVG"] {&#xa;  direction: ltr;&#xa;}&#xa;&#xa;mjx-container[jax="SVG"] &gt; svg {&#xa;  overflow: visible;&#xa;  min-height: 1px;&#xa;  min-width: 1px;&#xa;}&#xa;&#xa;mjx-container[jax="SVG"] &gt; svg a {&#xa;  fill: blue;&#xa;  stroke: blue;&#xa;}&#xa;&#xa;mjx-container[jax="SVG"][display="true"] {&#xa;  display: block;&#xa;  text-align: center;&#xa;  margin: 1em 0;&#xa;}&#xa;&#xa;mjx-container[jax="SVG"][display="true"][width="full"] {&#xa;  display: flex;&#xa;}&#xa;&#xa;mjx-container[jax="SVG"][justify="left"] {&#xa;  text-align: left;&#xa;}&#xa;&#xa;mjx-container[jax="SVG"][justify="right"] {&#xa;  text-align: right;&#xa;}&#xa;&#xa;g[data-mml-node="merror"] &gt; g {&#xa;  fill: red;&#xa;  stroke: red;&#xa;}&#xa;&#xa;g[data-mml-node="merror"] &gt; rect[data-background] {&#xa;  fill: yellow;&#xa;  stroke: none;&#xa;}&#xa;&#xa;g[data-mml-node="mtable"] &gt; line[data-line], svg[data-table] &gt; g &gt; line[data-line] {&#xa;  stroke-width: 70px;&#xa;  fill: none;&#xa;}&#xa;&#xa;g[data-mml-node="mtable"] &gt; rect[data-frame], svg[data-table] &gt; g &gt; rect[data-frame] {&#xa;  stroke-width: 70px;&#xa;  fill: none;&#xa;}&#xa;&#xa;g[data-mml-node="mtable"] &gt; .mjx-dashed, svg[data-table] &gt; g &gt; .mjx-dashed {&#xa;  stroke-dasharray: 140;&#xa;}&#xa;&#xa;g[data-mml-node="mtable"] &gt; .mjx-dotted, svg[data-table] &gt; g &gt; .mjx-dotted {&#xa;  stroke-linecap: round;&#xa;  stroke-dasharray: 0,140;&#xa;}&#xa;&#xa;g[data-mml-node="mtable"] &gt; g &gt; svg {&#xa;  overflow: visible;&#xa;}&#xa;&#xa;[jax="SVG"] mjx-tool {&#xa;  display: inline-block;&#xa;  position: relative;&#xa;  width: 0;&#xa;  height: 0;&#xa;}&#xa;&#xa;[jax="SVG"] mjx-tool &gt; mjx-tip {&#xa;  position: absolute;&#xa;  top: 0;&#xa;  left: 0;&#xa;}&#xa;&#xa;mjx-tool &gt; mjx-tip {&#xa;  display: inline-block;&#xa;  padding: .2em;&#xa;  border: 1px solid #888;&#xa;  font-size: 70%;&#xa;  background-color: #F8F8F8;&#xa;  color: black;&#xa;  box-shadow: 2px 2px 5px #AAAAAA;&#xa;}&#xa;&#xa;g[data-mml-node="maction"][data-toggle] {&#xa;  cursor: pointer;&#xa;}&#xa;&#xa;mjx-status {&#xa;  display: block;&#xa;  position: fixed;&#xa;  left: 1em;&#xa;  bottom: 1em;&#xa;  min-width: 25%;&#xa;  padding: .2em .4em;&#xa;  border: 1px solid #888;&#xa;  font-size: 90%;&#xa;  background-color: #F8F8F8;&#xa;  color: black;&#xa;}&#xa;&#xa;foreignObject[data-mjx-xml] {&#xa;  font-family: initial;&#xa;  line-height: normal;&#xa;  overflow: visible;&#xa;}&#xa;&#xa;mjx-container[jax="SVG"] path[data-c], mjx-container[jax="SVG"] use[data-c] {&#xa;  stroke-width: 3;&#xa;}&#xa;</style></defs><g><g data-cell-id="0"><g data-cell-id="1"><g data-cell-id="12"/><g data-cell-id="10"/><g data-cell-id="3"/><g data-cell-id="sPsMcHSqlExW0LYqErIb-69"/><g data-cell-id="sPsMcHSqlExW0LYqErIb-70"/><g data-cell-id="sPsMcHSqlExW0LYqErIb-73"/><g data-cell-id="sPsMcHSqlExW0LYqErIb-75"/><g data-cell-id="sPsMcHSqlExW0LYqErIb-78"/><g data-cell-id="sPsMcHSqlExW0LYqErIb-79"/><g data-cell-id="sPsMcHSqlExW0LYqErIb-87"/><g data-cell-id="sPsMcHSqlExW0LYqErIb-88"/><g data-cell-id="sPsMcHSqlExW0LYqErIb-94"/><g data-cell-id="sPsMcHSqlExW0LYqErIb-95"/><g data-cell-id="sPsMcHSqlExW0LYqErIb-96"/><g data-cell-id="sPsMcHSqlExW0LYqErIb-97"/><g data-cell-id="sPsMcHSqlExW0LYqErIb-100"/><g data-cell-id="sPsMcHSqlExW0LYqErIb-101"/><g data-cell-id="7"/><g data-cell-id="sPsMcHSqlExW0LYqErIb-80"/><g data-cell-id="9"/><g data-cell-id="11"/><g data-cell-id="sPsMcHSqlExW0LYqErIb-86"/><g data-cell-id="sPsMcHSqlExW0LYqErIb-102"/><g data-cell-id="13"/><g data-cell-id="sPsMcHSqlExW0LYqErIb-71"/><g data-cell-id="v6ZFyMIgYypPlkVNfGWB-13"><g><path d="M 320 29.8 L 120 29.98" fill="none" stroke="#000000" stroke-miterlimit="10" pointer-events="stroke" style="stroke: rgb(0, 0, 0);"/></g></g><g data-cell-id="v6ZFyMIgYypPlkVNfGWB-14"><g><path d="M 10 30 L 0 30" fill="none" stroke="#000000" stroke-miterlimit="10" pointer-events="stroke" style="stroke: rgb(0, 0, 0);"/></g></g><g data-cell-id="v6ZFyMIgYypPlkVNfGWB-15"><g><rect x="330" y="10" width="20" height="40" fill="none" stroke="none" pointer-events="all"/></g><g><g><switch><foreignObject style="overflow: visible; text-align: left;" pointer-events="none" width="100%" height="100%" requiredFeatures="http://www.w3.org/TR/SVG11/feature#Extensibility"><div xmlns="http://www.w3.org/1999/xhtml" style="display: flex; align-items: unsafe center; justify-content: unsafe center; width: 1px; height: 1px; padding-top: 30px; margin-left: 340px;"><div style="box-sizing: border-box; font-size: 0; text-align: center; color: #000000; "><div style="display: inline-block; font-size: 12px; font-family: Helvetica; color: #000000; line-height: 1.2; pointer-events: all; white-space: nowrap; "><mjx-container class="MathJax" jax="SVG" display="true"><svg xmlns="http://www.w3.org/2000/svg" width="2.652ex" height="0.271ex" role="img" focusable="false" viewBox="0 -310 1172 120" xmlns:xlink="http://www.w3.org/1999/xlink" style="vertical-align: 0.43ex;"><defs><path id="MJX-29-TEX-N-22EF" d="M78 250Q78 274 95 292T138 310Q162 310 180 294T199 251Q199 226 182 208T139 190T96 207T78 250ZM525 250Q525 274 542 292T585 310Q609 310 627 294T646 251Q646 226 629 208T586 190T543 207T525 250ZM972 250Q972 274 989 292T1032 310Q1056 310 1074 294T1093 251Q1093 226 1076 208T1033 190T990 207T972 250Z"/></defs><g stroke="currentColor" fill="currentColor" stroke-width="0" transform="scale(1,-1)"><g data-mml-node="math"><g data-mml-node="mo"><use data-c="22EF" xlink:href="#MJX-29-TEX-N-22EF"/></g></g></g></svg></mjx-container></div></div></div></foreignObject><text x="340" y="34" fill="light-dark(#000000, #ffffff)" font-family="Helvetica" font-size="12px" text-anchor="middle">$$\...</text></switch></g></g></g><g data-cell-id="v6ZFyMIgYypPlkVNfGWB-16"><g><rect x="130" y="10" width="50" height="40" rx="8.8" ry="8.8" fill="#ffe6cc" stroke="#d79b00" pointer-events="all" style="fill: rgb(255, 230, 204); stroke: rgb(215, 155, 0);"/></g><g><g><switch><foreignObject style="overflow: visible; text-align: left;" pointer-events="none" width="100%" height="100%" requiredFeatures="http://www.w3.org/TR/SVG11/feature#Extensibility"><div xmlns="http://www.w3.org/1999/xhtml" style="display: flex; align-items: unsafe center; justify-content: unsafe center; width: 48px; height: 1px; padding-top: 30px; margin-left: 131px;"><div style="box-sizing: border-box; font-size: 0; text-align: center; color: #000000; "><div style="display: inline-block; font-size: 18px; font-family: Helvetica; color: #000000; line-height: 1.2; pointer-events: all; white-space: normal; word-wrap: normal; "><mjx-container class="MathJax" jax="SVG" display="true"><svg xmlns="http://www.w3.org/2000/svg" width="4.603ex" height="2.07ex" role="img" focusable="false" viewBox="0 -903.7 2034.3 914.7" xmlns:xlink="http://www.w3.org/1999/xlink" style="vertical-align: -0.025ex;"><defs><path id="MJX-30-TEX-I-1D452" d="M39 168Q39 225 58 272T107 350T174 402T244 433T307 442H310Q355 442 388 420T421 355Q421 265 310 237Q261 224 176 223Q139 223 138 221Q138 219 132 186T125 128Q125 81 146 54T209 26T302 45T394 111Q403 121 406 121Q410 121 419 112T429 98T420 82T390 55T344 24T281 -1T205 -11Q126 -11 83 42T39 168ZM373 353Q367 405 305 405Q272 405 244 391T199 357T170 316T154 280T149 261Q149 260 169 260Q282 260 327 284T373 353Z"/><path id="MJX-30-TEX-I-1D456" d="M184 600Q184 624 203 642T247 661Q265 661 277 649T290 619Q290 596 270 577T226 557Q211 557 198 567T184 600ZM21 287Q21 295 30 318T54 369T98 420T158 442Q197 442 223 419T250 357Q250 340 236 301T196 196T154 83Q149 61 149 51Q149 26 166 26Q175 26 185 29T208 43T235 78T260 137Q263 149 265 151T282 153Q302 153 302 143Q302 135 293 112T268 61T223 11T161 -11Q129 -11 102 10T74 74Q74 91 79 106T122 220Q160 321 166 341T173 380Q173 404 156 404H154Q124 404 99 371T61 287Q60 286 59 284T58 281T56 279T53 278T49 278T41 278H27Q21 284 21 287Z"/><path id="MJX-30-TEX-I-1D719" d="M409 688Q413 694 421 694H429H442Q448 688 448 686Q448 679 418 563Q411 535 404 504T392 458L388 442Q388 441 397 441T429 435T477 418Q521 397 550 357T579 260T548 151T471 65T374 11T279 -10H275L251 -105Q245 -128 238 -160Q230 -192 227 -198T215 -205H209Q189 -205 189 -198Q189 -193 211 -103L234 -11Q234 -10 226 -10Q221 -10 206 -8T161 6T107 36T62 89T43 171Q43 231 76 284T157 370T254 422T342 441Q347 441 348 445L378 567Q409 686 409 688ZM122 150Q122 116 134 91T167 53T203 35T237 27H244L337 404Q333 404 326 403T297 395T255 379T211 350T170 304Q152 276 137 237Q122 191 122 150ZM500 282Q500 320 484 347T444 385T405 400T381 404H378L332 217L284 29Q284 27 285 27Q293 27 317 33T357 47Q400 66 431 100T475 170T494 234T500 282Z"/><path id="MJX-30-TEX-N-31" d="M213 578L200 573Q186 568 160 563T102 556H83V602H102Q149 604 189 617T245 641T273 663Q275 666 285 666Q294 666 302 660V361L303 61Q310 54 315 52T339 48T401 46H427V0H416Q395 3 257 3Q121 3 100 0H88V46H114Q136 46 152 46T177 47T193 50T201 52T207 57T213 61V578Z"/><path id="MJX-30-TEX-I-1D44D" d="M58 8Q58 23 64 35Q64 36 329 334T596 635L586 637Q575 637 512 637H500H476Q442 637 420 635T365 624T311 598T266 548T228 469Q227 466 226 463T224 458T223 453T222 450L221 448Q218 443 202 443Q185 443 182 453L214 561Q228 606 241 651Q249 679 253 681Q256 683 487 683H718Q723 678 723 675Q723 673 717 649Q189 54 188 52L185 49H274Q369 50 377 51Q452 60 500 100T579 247Q587 272 590 277T603 282H607Q628 282 628 271Q547 5 541 2Q538 0 300 0H124Q58 0 58 8Z"/></defs><g stroke="currentColor" fill="currentColor" stroke-width="0" transform="scale(1,-1)"><g data-mml-node="math"><g data-mml-node="msup"><g data-mml-node="mi"><use data-c="1D452" xlink:href="#MJX-30-TEX-I-1D452"/></g><g data-mml-node="TeXAtom" transform="translate(499,413) scale(0.707)" data-mjx-texclass="ORD"><g data-mml-node="mi"><use data-c="1D456" xlink:href="#MJX-30-TEX-I-1D456"/></g><g data-mml-node="msub" transform="translate(345,0)"><g data-mml-node="mi"><use data-c="1D719" xlink:href="#MJX-30-TEX-I-1D719"/></g><g data-mml-node="mn" transform="translate(629,-150) scale(0.707)"><use data-c="31" xlink:href="#MJX-30-TEX-N-31"/></g></g><g data-mml-node="mi" transform="translate(1377.6,0)"><use data-c="1D44D" xlink:href="#MJX-30-TEX-I-1D44D"/></g></g></g></g></g></svg></mjx-container></div></div></div></foreignObject><text x="155" y="35" fill="light-dark(#000000, #ffffff)" font-family="Helvetica" font-size="18px" text-anchor="middle">$$e^{i...</text></switch></g></g></g><g data-cell-id="v6ZFyMIgYypPlkVNfGWB-17"><g><rect x="250" y="10" width="50" height="40" rx="8.8" ry="8.8" fill="#ffe6cc" stroke="#d79b00" pointer-events="all" style="fill: rgb(255, 230, 204); stroke: rgb(215, 155, 0);"/></g><g><g><switch><foreignObject style="overflow: visible; text-align: left;" pointer-events="none" width="100%" height="100%" requiredFeatures="http://www.w3.org/TR/SVG11/feature#Extensibility"><div xmlns="http://www.w3.org/1999/xhtml" style="display: flex; align-items: unsafe center; justify-content: unsafe center; width: 48px; height: 1px; padding-top: 30px; margin-left: 251px;"><div style="box-sizing: border-box; font-size: 0; text-align: center; color: #000000; "><div style="display: inline-block; font-size: 18px; font-family: Helvetica; color: #000000; line-height: 1.2; pointer-events: all; white-space: normal; word-wrap: normal; "><mjx-container class="MathJax" jax="SVG" display="true"><svg xmlns="http://www.w3.org/2000/svg" width="4.603ex" height="2.07ex" role="img" focusable="false" viewBox="0 -903.7 2034.3 914.7" xmlns:xlink="http://www.w3.org/1999/xlink" style="vertical-align: -0.025ex;"><defs><path id="MJX-31-TEX-I-1D452" d="M39 168Q39 225 58 272T107 350T174 402T244 433T307 442H310Q355 442 388 420T421 355Q421 265 310 237Q261 224 176 223Q139 223 138 221Q138 219 132 186T125 128Q125 81 146 54T209 26T302 45T394 111Q403 121 406 121Q410 121 419 112T429 98T420 82T390 55T344 24T281 -1T205 -11Q126 -11 83 42T39 168ZM373 353Q367 405 305 405Q272 405 244 391T199 357T170 316T154 280T149 261Q149 260 169 260Q282 260 327 284T373 353Z"/><path id="MJX-31-TEX-I-1D456" d="M184 600Q184 624 203 642T247 661Q265 661 277 649T290 619Q290 596 270 577T226 557Q211 557 198 567T184 600ZM21 287Q21 295 30 318T54 369T98 420T158 442Q197 442 223 419T250 357Q250 340 236 301T196 196T154 83Q149 61 149 51Q149 26 166 26Q175 26 185 29T208 43T235 78T260 137Q263 149 265 151T282 153Q302 153 302 143Q302 135 293 112T268 61T223 11T161 -11Q129 -11 102 10T74 74Q74 91 79 106T122 220Q160 321 166 341T173 380Q173 404 156 404H154Q124 404 99 371T61 287Q60 286 59 284T58 281T56 279T53 278T49 278T41 278H27Q21 284 21 287Z"/><path id="MJX-31-TEX-I-1D719" d="M409 688Q413 694 421 694H429H442Q448 688 448 686Q448 679 418 563Q411 535 404 504T392 458L388 442Q388 441 397 441T429 435T477 418Q521 397 550 357T579 260T548 151T471 65T374 11T279 -10H275L251 -105Q245 -128 238 -160Q230 -192 227 -198T215 -205H209Q189 -205 189 -198Q189 -193 211 -103L234 -11Q234 -10 226 -10Q221 -10 206 -8T161 6T107 36T62 89T43 171Q43 231 76 284T157 370T254 422T342 441Q347 441 348 445L378 567Q409 686 409 688ZM122 150Q122 116 134 91T167 53T203 35T237 27H244L337 404Q333 404 326 403T297 395T255 379T211 350T170 304Q152 276 137 237Q122 191 122 150ZM500 282Q500 320 484 347T444 385T405 400T381 404H378L332 217L284 29Q284 27 285 27Q293 27 317 33T357 47Q400 66 431 100T475 170T494 234T500 282Z"/><path id="MJX-31-TEX-N-32" d="M109 429Q82 429 66 447T50 491Q50 562 103 614T235 666Q326 666 387 610T449 465Q449 422 429 383T381 315T301 241Q265 210 201 149L142 93L218 92Q375 92 385 97Q392 99 409 186V189H449V186Q448 183 436 95T421 3V0H50V19V31Q50 38 56 46T86 81Q115 113 136 137Q145 147 170 174T204 211T233 244T261 278T284 308T305 340T320 369T333 401T340 431T343 464Q343 527 309 573T212 619Q179 619 154 602T119 569T109 550Q109 549 114 549Q132 549 151 535T170 489Q170 464 154 447T109 429Z"/><path id="MJX-31-TEX-I-1D44D" d="M58 8Q58 23 64 35Q64 36 329 334T596 635L586 637Q575 637 512 637H500H476Q442 637 420 635T365 624T311 598T266 548T228 469Q227 466 226 463T224 458T223 453T222 450L221 448Q218 443 202 443Q185 443 182 453L214 561Q228 606 241 651Q249 679 253 681Q256 683 487 683H718Q723 678 723 675Q723 673 717 649Q189 54 188 52L185 49H274Q369 50 377 51Q452 60 500 100T579 247Q587 272 590 277T603 282H607Q628 282 628 271Q547 5 541 2Q538 0 300 0H124Q58 0 58 8Z"/></defs><g stroke="currentColor" fill="currentColor" stroke-width="0" transform="scale(1,-1)"><g data-mml-node="math"><g data-mml-node="msup"><g data-mml-node="mi"><use data-c="1D452" xlink:href="#MJX-31-TEX-I-1D452"/></g><g data-mml-node="TeXAtom" transform="translate(499,413) scale(0.707)" data-mjx-texclass="ORD"><g data-mml-node="mi"><use data-c="1D456" xlink:href="#MJX-31-TEX-I-1D456"/></g><g data-mml-node="msub" transform="translate(345,0)"><g data-mml-node="mi"><use data-c="1D719" xlink:href="#MJX-31-TEX-I-1D719"/></g><g data-mml-node="mn" transform="translate(629,-150) scale(0.707)"><use data-c="32" xlink:href="#MJX-31-TEX-N-32"/></g></g><g data-mml-node="mi" transform="translate(1377.6,0)"><use data-c="1D44D" xlink:href="#MJX-31-TEX-I-1D44D"/></g></g></g></g></g></svg></mjx-container></div></div></div></foreignObject><text x="275" y="35" fill="light-dark(#000000, #ffffff)" font-family="Helvetica" font-size="18px" text-anchor="middle">$$e^{i...</text></switch></g></g></g><g data-cell-id="v6ZFyMIgYypPlkVNfGWB-20"><g><rect x="190" y="10" width="50" height="40" rx="8.8" ry="8.8" fill="#dae8fc" stroke="#6c8ebf" pointer-events="all" style="fill: rgb(218, 232, 252); stroke: rgb(108, 142, 191);"/></g><g><g><switch><foreignObject style="overflow: visible; text-align: left;" pointer-events="none" width="100%" height="100%" requiredFeatures="http://www.w3.org/TR/SVG11/feature#Extensibility"><div xmlns="http://www.w3.org/1999/xhtml" style="display: flex; align-items: unsafe center; justify-content: unsafe center; width: 48px; height: 1px; padding-top: 30px; margin-left: 191px;"><div style="box-sizing: border-box; font-size: 0; text-align: center; color: #000000; "><div style="display: inline-block; font-size: 18px; font-family: Helvetica; color: #000000; line-height: 1.2; pointer-events: all; white-space: normal; word-wrap: normal; "><mjx-container class="MathJax" jax="SVG" display="true"><svg xmlns="http://www.w3.org/2000/svg" width="5.425ex" height="2.262ex" role="img" focusable="false" viewBox="0 -750 2398 1000" xmlns:xlink="http://www.w3.org/1999/xlink" style="vertical-align: -0.566ex;"><defs><path id="MJX-32-TEX-I-1D44A" d="M436 683Q450 683 486 682T553 680Q604 680 638 681T677 682Q695 682 695 674Q695 670 692 659Q687 641 683 639T661 637Q636 636 621 632T600 624T597 615Q597 603 613 377T629 138L631 141Q633 144 637 151T649 170T666 200T690 241T720 295T759 362Q863 546 877 572T892 604Q892 619 873 628T831 637Q817 637 817 647Q817 650 819 660Q823 676 825 679T839 682Q842 682 856 682T895 682T949 681Q1015 681 1034 683Q1048 683 1048 672Q1048 666 1045 655T1038 640T1028 637Q1006 637 988 631T958 617T939 600T927 584L923 578L754 282Q586 -14 585 -15Q579 -22 561 -22Q546 -22 542 -17Q539 -14 523 229T506 480L494 462Q472 425 366 239Q222 -13 220 -15T215 -19Q210 -22 197 -22Q178 -22 176 -15Q176 -12 154 304T131 622Q129 631 121 633T82 637H58Q51 644 51 648Q52 671 64 683H76Q118 680 176 680Q301 680 313 683H323Q329 677 329 674T327 656Q322 641 318 637H297Q236 634 232 620Q262 160 266 136L501 550L499 587Q496 629 489 632Q483 636 447 637Q428 637 422 639T416 648Q416 650 418 660Q419 664 420 669T421 676T424 680T428 682T436 683Z"/><path id="MJX-32-TEX-N-28" d="M94 250Q94 319 104 381T127 488T164 576T202 643T244 695T277 729T302 750H315H319Q333 750 333 741Q333 738 316 720T275 667T226 581T184 443T167 250T184 58T225 -81T274 -167T316 -220T333 -241Q333 -250 318 -250H315H302L274 -226Q180 -141 137 -14T94 250Z"/><path id="MJX-32-TEX-I-1D465" d="M52 289Q59 331 106 386T222 442Q257 442 286 424T329 379Q371 442 430 442Q467 442 494 420T522 361Q522 332 508 314T481 292T458 288Q439 288 427 299T415 328Q415 374 465 391Q454 404 425 404Q412 404 406 402Q368 386 350 336Q290 115 290 78Q290 50 306 38T341 26Q378 26 414 59T463 140Q466 150 469 151T485 153H489Q504 153 504 145Q504 144 502 134Q486 77 440 33T333 -11Q263 -11 227 52Q186 -10 133 -10H127Q78 -10 57 16T35 71Q35 103 54 123T99 143Q142 143 142 101Q142 81 130 66T107 46T94 41L91 40Q91 39 97 36T113 29T132 26Q168 26 194 71Q203 87 217 139T245 247T261 313Q266 340 266 352Q266 380 251 392T217 404Q177 404 142 372T93 290Q91 281 88 280T72 278H58Q52 284 52 289Z"/><path id="MJX-32-TEX-N-29" d="M60 749L64 750Q69 750 74 750H86L114 726Q208 641 251 514T294 250Q294 182 284 119T261 12T224 -76T186 -143T145 -194T113 -227T90 -246Q87 -249 86 -250H74Q66 -250 63 -250T58 -247T55 -238Q56 -237 66 -225Q221 -64 221 250T66 725Q56 737 55 738Q55 746 60 749Z"/></defs><g stroke="currentColor" fill="currentColor" stroke-width="0" transform="scale(1,-1)"><g data-mml-node="math"><g data-mml-node="mi"><use data-c="1D44A" xlink:href="#MJX-32-TEX-I-1D44A"/></g><g data-mml-node="mo" transform="translate(1048,0)"><use data-c="28" xlink:href="#MJX-32-TEX-N-28"/></g><g data-mml-node="mi" transform="translate(1437,0)"><use data-c="1D465" xlink:href="#MJX-32-TEX-I-1D465"/></g><g data-mml-node="mo" transform="translate(2009,0)"><use data-c="29" xlink:href="#MJX-32-TEX-N-29"/></g></g></g></svg></mjx-container></div></div></div></foreignObject><text x="215" y="35" fill="light-dark(#000000, #ffffff)" font-family="Helvetica" font-size="18px" text-anchor="middle">$$W(x)...</text></switch></g></g></g><g data-cell-id="v6ZFyMIgYypPlkVNfGWB-24"><g><path d="M 490 30 L 360 29.86" fill="none" stroke="#000000" stroke-miterlimit="10" pointer-events="stroke" style="stroke: rgb(0, 0, 0);"/></g></g><g data-cell-id="v6ZFyMIgYypPlkVNfGWB-25"><g><rect x="70" y="10" width="50" height="40" rx="8.8" ry="8.8" fill="#dae8fc" stroke="#6c8ebf" pointer-events="all" style="fill: rgb(218, 232, 252); stroke: rgb(108, 142, 191);"/></g><g><g><switch><foreignObject style="overflow: visible; text-align: left;" pointer-events="none" width="100%" height="100%" requiredFeatures="http://www.w3.org/TR/SVG11/feature#Extensibility"><div xmlns="http://www.w3.org/1999/xhtml" style="display: flex; align-items: unsafe center; justify-content: unsafe center; width: 48px; height: 1px; padding-top: 30px; margin-left: 71px;"><div style="box-sizing: border-box; font-size: 0; text-align: center; color: #000000; "><div style="display: inline-block; font-size: 18px; font-family: Helvetica; color: #000000; line-height: 1.2; pointer-events: all; white-space: normal; word-wrap: normal; "><mjx-container class="MathJax" jax="SVG" display="true"><svg xmlns="http://www.w3.org/2000/svg" width="5.425ex" height="2.262ex" role="img" focusable="false" viewBox="0 -750 2398 1000" xmlns:xlink="http://www.w3.org/1999/xlink" style="vertical-align: -0.566ex;"><defs><path id="MJX-33-TEX-I-1D44A" d="M436 683Q450 683 486 682T553 680Q604 680 638 681T677 682Q695 682 695 674Q695 670 692 659Q687 641 683 639T661 637Q636 636 621 632T600 624T597 615Q597 603 613 377T629 138L631 141Q633 144 637 151T649 170T666 200T690 241T720 295T759 362Q863 546 877 572T892 604Q892 619 873 628T831 637Q817 637 817 647Q817 650 819 660Q823 676 825 679T839 682Q842 682 856 682T895 682T949 681Q1015 681 1034 683Q1048 683 1048 672Q1048 666 1045 655T1038 640T1028 637Q1006 637 988 631T958 617T939 600T927 584L923 578L754 282Q586 -14 585 -15Q579 -22 561 -22Q546 -22 542 -17Q539 -14 523 229T506 480L494 462Q472 425 366 239Q222 -13 220 -15T215 -19Q210 -22 197 -22Q178 -22 176 -15Q176 -12 154 304T131 622Q129 631 121 633T82 637H58Q51 644 51 648Q52 671 64 683H76Q118 680 176 680Q301 680 313 683H323Q329 677 329 674T327 656Q322 641 318 637H297Q236 634 232 620Q262 160 266 136L501 550L499 587Q496 629 489 632Q483 636 447 637Q428 637 422 639T416 648Q416 650 418 660Q419 664 420 669T421 676T424 680T428 682T436 683Z"/><path id="MJX-33-TEX-N-28" d="M94 250Q94 319 104 381T127 488T164 576T202 643T244 695T277 729T302 750H315H319Q333 750 333 741Q333 738 316 720T275 667T226 581T184 443T167 250T184 58T225 -81T274 -167T316 -220T333 -241Q333 -250 318 -250H315H302L274 -226Q180 -141 137 -14T94 250Z"/><path id="MJX-33-TEX-I-1D465" d="M52 289Q59 331 106 386T222 442Q257 442 286 424T329 379Q371 442 430 442Q467 442 494 420T522 361Q522 332 508 314T481 292T458 288Q439 288 427 299T415 328Q415 374 465 391Q454 404 425 404Q412 404 406 402Q368 386 350 336Q290 115 290 78Q290 50 306 38T341 26Q378 26 414 59T463 140Q466 150 469 151T485 153H489Q504 153 504 145Q504 144 502 134Q486 77 440 33T333 -11Q263 -11 227 52Q186 -10 133 -10H127Q78 -10 57 16T35 71Q35 103 54 123T99 143Q142 143 142 101Q142 81 130 66T107 46T94 41L91 40Q91 39 97 36T113 29T132 26Q168 26 194 71Q203 87 217 139T245 247T261 313Q266 340 266 352Q266 380 251 392T217 404Q177 404 142 372T93 290Q91 281 88 280T72 278H58Q52 284 52 289Z"/><path id="MJX-33-TEX-N-29" d="M60 749L64 750Q69 750 74 750H86L114 726Q208 641 251 514T294 250Q294 182 284 119T261 12T224 -76T186 -143T145 -194T113 -227T90 -246Q87 -249 86 -250H74Q66 -250 63 -250T58 -247T55 -238Q56 -237 66 -225Q221 -64 221 250T66 725Q56 737 55 738Q55 746 60 749Z"/></defs><g stroke="currentColor" fill="currentColor" stroke-width="0" transform="scale(1,-1)"><g data-mml-node="math"><g data-mml-node="mi"><use data-c="1D44A" xlink:href="#MJX-33-TEX-I-1D44A"/></g><g data-mml-node="mo" transform="translate(1048,0)"><use data-c="28" xlink:href="#MJX-33-TEX-N-28"/></g><g data-mml-node="mi" transform="translate(1437,0)"><use data-c="1D465" xlink:href="#MJX-33-TEX-I-1D465"/></g><g data-mml-node="mo" transform="translate(2009,0)"><use data-c="29" xlink:href="#MJX-33-TEX-N-29"/></g></g></g></svg></mjx-container></div></div></div></foreignObject><text x="95" y="35" fill="light-dark(#000000, #ffffff)" font-family="Helvetica" font-size="18px" text-anchor="middle">$$W(x)...</text></switch></g></g></g><g data-cell-id="v6ZFyMIgYypPlkVNfGWB-26"><g><path d="M 70 30 L 60 30" fill="none" stroke="#000000" stroke-miterlimit="10" pointer-events="stroke" style="stroke: rgb(0, 0, 0);"/></g></g><g data-cell-id="v6ZFyMIgYypPlkVNfGWB-27"><g><rect x="10" y="10" width="50" height="40" rx="8.8" ry="8.8" fill="#ffe6cc" stroke="#d79b00" pointer-events="all" style="fill: rgb(255, 230, 204); stroke: rgb(215, 155, 0);"/></g><g><g><switch><foreignObject style="overflow: visible; text-align: left;" pointer-events="none" width="100%" height="100%" requiredFeatures="http://www.w3.org/TR/SVG11/feature#Extensibility"><div xmlns="http://www.w3.org/1999/xhtml" style="display: flex; align-items: unsafe center; justify-content: unsafe center; width: 48px; height: 1px; padding-top: 30px; margin-left: 11px;"><div style="box-sizing: border-box; font-size: 0; text-align: center; color: #000000; "><div style="display: inline-block; font-size: 18px; font-family: Helvetica; color: #000000; line-height: 1.2; pointer-events: all; white-space: normal; word-wrap: normal; "><mjx-container class="MathJax" jax="SVG" display="true"><svg xmlns="http://www.w3.org/2000/svg" width="4.603ex" height="2.07ex" role="img" focusable="false" viewBox="0 -903.7 2034.3 914.7" xmlns:xlink="http://www.w3.org/1999/xlink" style="vertical-align: -0.025ex;"><defs><path id="MJX-34-TEX-I-1D452" d="M39 168Q39 225 58 272T107 350T174 402T244 433T307 442H310Q355 442 388 420T421 355Q421 265 310 237Q261 224 176 223Q139 223 138 221Q138 219 132 186T125 128Q125 81 146 54T209 26T302 45T394 111Q403 121 406 121Q410 121 419 112T429 98T420 82T390 55T344 24T281 -1T205 -11Q126 -11 83 42T39 168ZM373 353Q367 405 305 405Q272 405 244 391T199 357T170 316T154 280T149 261Q149 260 169 260Q282 260 327 284T373 353Z"/><path id="MJX-34-TEX-I-1D456" d="M184 600Q184 624 203 642T247 661Q265 661 277 649T290 619Q290 596 270 577T226 557Q211 557 198 567T184 600ZM21 287Q21 295 30 318T54 369T98 420T158 442Q197 442 223 419T250 357Q250 340 236 301T196 196T154 83Q149 61 149 51Q149 26 166 26Q175 26 185 29T208 43T235 78T260 137Q263 149 265 151T282 153Q302 153 302 143Q302 135 293 112T268 61T223 11T161 -11Q129 -11 102 10T74 74Q74 91 79 106T122 220Q160 321 166 341T173 380Q173 404 156 404H154Q124 404 99 371T61 287Q60 286 59 284T58 281T56 279T53 278T49 278T41 278H27Q21 284 21 287Z"/><path id="MJX-34-TEX-I-1D719" d="M409 688Q413 694 421 694H429H442Q448 688 448 686Q448 679 418 563Q411 535 404 504T392 458L388 442Q388 441 397 441T429 435T477 418Q521 397 550 357T579 260T548 151T471 65T374 11T279 -10H275L251 -105Q245 -128 238 -160Q230 -192 227 -198T215 -205H209Q189 -205 189 -198Q189 -193 211 -103L234 -11Q234 -10 226 -10Q221 -10 206 -8T161 6T107 36T62 89T43 171Q43 231 76 284T157 370T254 422T342 441Q347 441 348 445L378 567Q409 686 409 688ZM122 150Q122 116 134 91T167 53T203 35T237 27H244L337 404Q333 404 326 403T297 395T255 379T211 350T170 304Q152 276 137 237Q122 191 122 150ZM500 282Q500 320 484 347T444 385T405 400T381 404H378L332 217L284 29Q284 27 285 27Q293 27 317 33T357 47Q400 66 431 100T475 170T494 234T500 282Z"/><path id="MJX-34-TEX-N-30" d="M96 585Q152 666 249 666Q297 666 345 640T423 548Q460 465 460 320Q460 165 417 83Q397 41 362 16T301 -15T250 -22Q224 -22 198 -16T137 16T82 83Q39 165 39 320Q39 494 96 585ZM321 597Q291 629 250 629Q208 629 178 597Q153 571 145 525T137 333Q137 175 145 125T181 46Q209 16 250 16Q290 16 318 46Q347 76 354 130T362 333Q362 478 354 524T321 597Z"/><path id="MJX-34-TEX-I-1D44D" d="M58 8Q58 23 64 35Q64 36 329 334T596 635L586 637Q575 637 512 637H500H476Q442 637 420 635T365 624T311 598T266 548T228 469Q227 466 226 463T224 458T223 453T222 450L221 448Q218 443 202 443Q185 443 182 453L214 561Q228 606 241 651Q249 679 253 681Q256 683 487 683H718Q723 678 723 675Q723 673 717 649Q189 54 188 52L185 49H274Q369 50 377 51Q452 60 500 100T579 247Q587 272 590 277T603 282H607Q628 282 628 271Q547 5 541 2Q538 0 300 0H124Q58 0 58 8Z"/></defs><g stroke="currentColor" fill="currentColor" stroke-width="0" transform="scale(1,-1)"><g data-mml-node="math"><g data-mml-node="msup"><g data-mml-node="mi"><use data-c="1D452" xlink:href="#MJX-34-TEX-I-1D452"/></g><g data-mml-node="TeXAtom" transform="translate(499,413) scale(0.707)" data-mjx-texclass="ORD"><g data-mml-node="mi"><use data-c="1D456" xlink:href="#MJX-34-TEX-I-1D456"/></g><g data-mml-node="msub" transform="translate(345,0)"><g data-mml-node="mi"><use data-c="1D719" xlink:href="#MJX-34-TEX-I-1D719"/></g><g data-mml-node="mn" transform="translate(629,-150) scale(0.707)"><use data-c="30" xlink:href="#MJX-34-TEX-N-30"/></g></g><g data-mml-node="mi" transform="translate(1377.6,0)"><use data-c="1D44D" xlink:href="#MJX-34-TEX-I-1D44D"/></g></g></g></g></g></svg></mjx-container></div></div></div></foreignObject><text x="35" y="35" fill="light-dark(#000000, #ffffff)" font-family="Helvetica" font-size="18px" text-anchor="middle">$$e^{i...</text></switch></g></g></g><g data-cell-id="v6ZFyMIgYypPlkVNfGWB-19"><g><rect x="370" y="10" width="50" height="40" rx="8.8" ry="8.8" fill="#dae8fc" stroke="#6c8ebf" pointer-events="all" style="fill: rgb(218, 232, 252); stroke: rgb(108, 142, 191);"/></g><g><g><switch><foreignObject style="overflow: visible; text-align: left;" pointer-events="none" width="100%" height="100%" requiredFeatures="http://www.w3.org/TR/SVG11/feature#Extensibility"><div xmlns="http://www.w3.org/1999/xhtml" style="display: flex; align-items: unsafe center; justify-content: unsafe center; width: 48px; height: 1px; padding-top: 30px; margin-left: 371px;"><div style="box-sizing: border-box; font-size: 0; text-align: center; color: #000000; "><div style="display: inline-block; font-size: 12px; font-family: Helvetica; color: #000000; line-height: 1.2; pointer-events: all; white-space: normal; word-wrap: normal; "><span style="font-size: 18px;"><mjx-container class="MathJax" jax="SVG" display="true"><svg xmlns="http://www.w3.org/2000/svg" width="5.425ex" height="2.262ex" role="img" focusable="false" viewBox="0 -750 2398 1000" xmlns:xlink="http://www.w3.org/1999/xlink" style="vertical-align: -0.566ex;"><defs><path id="MJX-35-TEX-I-1D44A" d="M436 683Q450 683 486 682T553 680Q604 680 638 681T677 682Q695 682 695 674Q695 670 692 659Q687 641 683 639T661 637Q636 636 621 632T600 624T597 615Q597 603 613 377T629 138L631 141Q633 144 637 151T649 170T666 200T690 241T720 295T759 362Q863 546 877 572T892 604Q892 619 873 628T831 637Q817 637 817 647Q817 650 819 660Q823 676 825 679T839 682Q842 682 856 682T895 682T949 681Q1015 681 1034 683Q1048 683 1048 672Q1048 666 1045 655T1038 640T1028 637Q1006 637 988 631T958 617T939 600T927 584L923 578L754 282Q586 -14 585 -15Q579 -22 561 -22Q546 -22 542 -17Q539 -14 523 229T506 480L494 462Q472 425 366 239Q222 -13 220 -15T215 -19Q210 -22 197 -22Q178 -22 176 -15Q176 -12 154 304T131 622Q129 631 121 633T82 637H58Q51 644 51 648Q52 671 64 683H76Q118 680 176 680Q301 680 313 683H323Q329 677 329 674T327 656Q322 641 318 637H297Q236 634 232 620Q262 160 266 136L501 550L499 587Q496 629 489 632Q483 636 447 637Q428 637 422 639T416 648Q416 650 418 660Q419 664 420 669T421 676T424 680T428 682T436 683Z"/><path id="MJX-35-TEX-N-28" d="M94 250Q94 319 104 381T127 488T164 576T202 643T244 695T277 729T302 750H315H319Q333 750 333 741Q333 738 316 720T275 667T226 581T184 443T167 250T184 58T225 -81T274 -167T316 -220T333 -241Q333 -250 318 -250H315H302L274 -226Q180 -141 137 -14T94 250Z"/><path id="MJX-35-TEX-I-1D465" d="M52 289Q59 331 106 386T222 442Q257 442 286 424T329 379Q371 442 430 442Q467 442 494 420T522 361Q522 332 508 314T481 292T458 288Q439 288 427 299T415 328Q415 374 465 391Q454 404 425 404Q412 404 406 402Q368 386 350 336Q290 115 290 78Q290 50 306 38T341 26Q378 26 414 59T463 140Q466 150 469 151T485 153H489Q504 153 504 145Q504 144 502 134Q486 77 440 33T333 -11Q263 -11 227 52Q186 -10 133 -10H127Q78 -10 57 16T35 71Q35 103 54 123T99 143Q142 143 142 101Q142 81 130 66T107 46T94 41L91 40Q91 39 97 36T113 29T132 26Q168 26 194 71Q203 87 217 139T245 247T261 313Q266 340 266 352Q266 380 251 392T217 404Q177 404 142 372T93 290Q91 281 88 280T72 278H58Q52 284 52 289Z"/><path id="MJX-35-TEX-N-29" d="M60 749L64 750Q69 750 74 750H86L114 726Q208 641 251 514T294 250Q294 182 284 119T261 12T224 -76T186 -143T145 -194T113 -227T90 -246Q87 -249 86 -250H74Q66 -250 63 -250T58 -247T55 -238Q56 -237 66 -225Q221 -64 221 250T66 725Q56 737 55 738Q55 746 60 749Z"/></defs><g stroke="currentColor" fill="currentColor" stroke-width="0" transform="scale(1,-1)"><g data-mml-node="math"><g data-mml-node="mi"><use data-c="1D44A" xlink:href="#MJX-35-TEX-I-1D44A"/></g><g data-mml-node="mo" transform="translate(1048,0)"><use data-c="28" xlink:href="#MJX-35-TEX-N-28"/></g><g data-mml-node="mi" transform="translate(1437,0)"><use data-c="1D465" xlink:href="#MJX-35-TEX-I-1D465"/></g><g data-mml-node="mo" transform="translate(2009,0)"><use data-c="29" xlink:href="#MJX-35-TEX-N-29"/></g></g></g></svg></mjx-container></span></div></div></div></foreignObject><text x="395" y="34" fill="light-dark(#000000, #ffffff)" font-family="Helvetica" font-size="12px" text-anchor="middle">$$W(x)$$</text></switch></g></g></g><g data-cell-id="v6ZFyMIgYypPlkVNfGWB-22"><g><rect x="430" y="10" width="50" height="40" rx="8.8" ry="8.8" fill="#ffe6cc" stroke="#d79b00" pointer-events="all" style="fill: rgb(255, 230, 204); stroke: rgb(215, 155, 0);"/></g><g><g><switch><foreignObject style="overflow: visible; text-align: left;" pointer-events="none" width="100%" height="100%" requiredFeatures="http://www.w3.org/TR/SVG11/feature#Extensibility"><div xmlns="http://www.w3.org/1999/xhtml" style="display: flex; align-items: unsafe center; justify-content: unsafe center; width: 48px; height: 1px; padding-top: 30px; margin-left: 431px;"><div style="box-sizing: border-box; font-size: 0; text-align: center; color: #000000; "><div style="display: inline-block; font-size: 12px; font-family: Helvetica; color: #000000; line-height: 1.2; pointer-events: all; white-space: normal; word-wrap: normal; "><span style="font-size: 18px;"><mjx-container class="MathJax" jax="SVG" display="true"><svg xmlns="http://www.w3.org/2000/svg" width="4.625ex" height="2.07ex" role="img" focusable="false" viewBox="0 -903.7 2044.3 914.7" xmlns:xlink="http://www.w3.org/1999/xlink" style="vertical-align: -0.025ex;"><defs><path id="MJX-36-TEX-I-1D452" d="M39 168Q39 225 58 272T107 350T174 402T244 433T307 442H310Q355 442 388 420T421 355Q421 265 310 237Q261 224 176 223Q139 223 138 221Q138 219 132 186T125 128Q125 81 146 54T209 26T302 45T394 111Q403 121 406 121Q410 121 419 112T429 98T420 82T390 55T344 24T281 -1T205 -11Q126 -11 83 42T39 168ZM373 353Q367 405 305 405Q272 405 244 391T199 357T170 316T154 280T149 261Q149 260 169 260Q282 260 327 284T373 353Z"/><path id="MJX-36-TEX-I-1D456" d="M184 600Q184 624 203 642T247 661Q265 661 277 649T290 619Q290 596 270 577T226 557Q211 557 198 567T184 600ZM21 287Q21 295 30 318T54 369T98 420T158 442Q197 442 223 419T250 357Q250 340 236 301T196 196T154 83Q149 61 149 51Q149 26 166 26Q175 26 185 29T208 43T235 78T260 137Q263 149 265 151T282 153Q302 153 302 143Q302 135 293 112T268 61T223 11T161 -11Q129 -11 102 10T74 74Q74 91 79 106T122 220Q160 321 166 341T173 380Q173 404 156 404H154Q124 404 99 371T61 287Q60 286 59 284T58 281T56 279T53 278T49 278T41 278H27Q21 284 21 287Z"/><path id="MJX-36-TEX-I-1D719" d="M409 688Q413 694 421 694H429H442Q448 688 448 686Q448 679 418 563Q411 535 404 504T392 458L388 442Q388 441 397 441T429 435T477 418Q521 397 550 357T579 260T548 151T471 65T374 11T279 -10H275L251 -105Q245 -128 238 -160Q230 -192 227 -198T215 -205H209Q189 -205 189 -198Q189 -193 211 -103L234 -11Q234 -10 226 -10Q221 -10 206 -8T161 6T107 36T62 89T43 171Q43 231 76 284T157 370T254 422T342 441Q347 441 348 445L378 567Q409 686 409 688ZM122 150Q122 116 134 91T167 53T203 35T237 27H244L337 404Q333 404 326 403T297 395T255 379T211 350T170 304Q152 276 137 237Q122 191 122 150ZM500 282Q500 320 484 347T444 385T405 400T381 404H378L332 217L284 29Q284 27 285 27Q293 27 317 33T357 47Q400 66 431 100T475 170T494 234T500 282Z"/><path id="MJX-36-TEX-I-1D451" d="M366 683Q367 683 438 688T511 694Q523 694 523 686Q523 679 450 384T375 83T374 68Q374 26 402 26Q411 27 422 35Q443 55 463 131Q469 151 473 152Q475 153 483 153H487H491Q506 153 506 145Q506 140 503 129Q490 79 473 48T445 8T417 -8Q409 -10 393 -10Q359 -10 336 5T306 36L300 51Q299 52 296 50Q294 48 292 46Q233 -10 172 -10Q117 -10 75 30T33 157Q33 205 53 255T101 341Q148 398 195 420T280 442Q336 442 364 400Q369 394 369 396Q370 400 396 505T424 616Q424 629 417 632T378 637H357Q351 643 351 645T353 664Q358 683 366 683ZM352 326Q329 405 277 405Q242 405 210 374T160 293Q131 214 119 129Q119 126 119 118T118 106Q118 61 136 44T179 26Q233 26 290 98L298 109L352 326Z"/><path id="MJX-36-TEX-I-1D44D" d="M58 8Q58 23 64 35Q64 36 329 334T596 635L586 637Q575 637 512 637H500H476Q442 637 420 635T365 624T311 598T266 548T228 469Q227 466 226 463T224 458T223 453T222 450L221 448Q218 443 202 443Q185 443 182 453L214 561Q228 606 241 651Q249 679 253 681Q256 683 487 683H718Q723 678 723 675Q723 673 717 649Q189 54 188 52L185 49H274Q369 50 377 51Q452 60 500 100T579 247Q587 272 590 277T603 282H607Q628 282 628 271Q547 5 541 2Q538 0 300 0H124Q58 0 58 8Z"/></defs><g stroke="currentColor" fill="currentColor" stroke-width="0" transform="scale(1,-1)"><g data-mml-node="math"><g data-mml-node="msup"><g data-mml-node="mi"><use data-c="1D452" xlink:href="#MJX-36-TEX-I-1D452"/></g><g data-mml-node="TeXAtom" transform="translate(499,413) scale(0.707)" data-mjx-texclass="ORD"><g data-mml-node="mi"><use data-c="1D456" xlink:href="#MJX-36-TEX-I-1D456"/></g><g data-mml-node="msub" transform="translate(345,0)"><g data-mml-node="mi"><use data-c="1D719" xlink:href="#MJX-36-TEX-I-1D719"/></g><g data-mml-node="mi" transform="translate(629,-150) scale(0.707)"><use data-c="1D451" xlink:href="#MJX-36-TEX-I-1D451"/></g></g><g data-mml-node="mi" transform="translate(1391.7,0)"><use data-c="1D44D" xlink:href="#MJX-36-TEX-I-1D44D"/></g></g></g></g></g></svg></mjx-container></span></div></div></div></foreignObject><text x="455" y="34" fill="light-dark(#000000, #ffffff)" font-family="Helvetica" font-size="12px" text-anchor="middle">$$e^{i\p...</text></switch></g></g></g></g></g></g></svg>